<svg version="1.1" id="Layer_1" xmlns="http://www.w3.org/2000/svg" xmlns:xlink="http://www.w3.org/1999/xlink" x="0px" y="0px"
	 width="100%" viewBox="0 0 55 55" enable-background="new 0 0 55 55" xml:space="preserve">
<path fill="#FDFCFE" opacity="1.000000" stroke="none" 
	d="
M21.000000,56.000000 
	C14.409307,56.000000 7.818615,56.000000 1.000000,56.000000 
	C1.000000,49.981487 1.000000,43.960117 1.297292,37.461197 
	C1.790391,36.952480 1.986197,36.921326 2.384224,37.158470 
	C2.976954,38.231228 3.367464,39.035690 3.790607,39.874283 
	C3.823242,39.908413 3.915559,39.928318 4.062530,40.216454 
	C4.847936,41.317333 5.486372,42.130085 6.153078,43.238533 
	C6.920807,44.429455 7.660267,45.324669 8.550016,46.506821 
	C9.491161,47.477402 10.282018,48.161053 11.207365,49.127609 
	C12.238111,49.891102 13.134366,50.371693 14.150997,51.163216 
	C15.249288,51.907925 16.227203,52.341705 17.400579,53.067783 
	C18.723112,53.721233 19.850185,54.082382 20.954824,54.703186 
	C20.954927,55.308563 20.977463,55.654282 21.000000,56.000000 
z"/>
<path fill="#FBFEFC" opacity="1.000000" stroke="none" 
	d="
M1.000000,17.000000 
	C1.000000,11.751499 1.000000,6.502998 1.000000,1.000000 
	C5.012047,1.000000 9.029362,1.000000 13.523377,1.383197 
	C13.993430,2.786844 13.986782,3.807293 13.802283,5.087847 
	C13.424382,5.938871 13.224332,6.529790 12.696632,7.150805 
	C11.289751,8.186829 10.210520,9.192757 8.865440,10.293488 
	C8.428849,10.713691 8.258103,11.039091 7.813489,11.483322 
	C7.216290,12.343223 6.892961,13.084291 6.269895,13.937901 
	C5.361363,15.099992 4.752568,16.149542 3.887649,17.142967 
	C3.457091,17.075512 3.282657,17.064182 2.757227,17.028418 
	C1.937487,17.002653 1.468743,17.001326 1.000000,17.000000 
z"/>
<path fill="#FEFBFB" opacity="1.000000" stroke="none" 
	d="
M56.000000,43.000000 
	C56.000000,47.242210 56.000000,51.484425 56.000000,56.000000 
	C52.996288,56.000000 49.984711,56.000000 46.520920,55.649380 
	C46.027630,53.496986 45.986542,51.695213 45.918633,49.598904 
	C45.888859,49.107136 45.885906,48.909901 46.121513,48.734592 
	C46.626438,48.367165 46.892796,47.977810 47.462791,47.448208 
	C48.670940,46.153542 49.575451,44.999119 50.857536,43.688469 
	C51.481499,42.003326 51.727886,40.474403 52.318863,39.082363 
	C53.127922,39.065701 53.592388,38.912159 53.993050,38.944901 
	C53.929241,39.131187 53.903370,39.524162 53.921051,39.691437 
	C53.938736,39.858707 54.019215,40.196941 53.971447,40.498528 
	C54.615788,41.533413 55.307892,42.266705 56.000000,43.000000 
z"/>
<path fill="#FEFDFD" opacity="1.000000" stroke="none" 
	d="
M45.000000,1.000000 
	C48.563545,1.000000 52.127094,1.000000 56.000000,1.000000 
	C56.000000,2.997624 56.000000,5.002729 55.612236,7.503389 
	C52.546211,7.994611 49.867947,7.990279 46.867653,7.774673 
	C45.032669,6.765870 43.519707,5.968340 42.233131,5.012161 
	C42.534683,4.685246 42.609856,4.516978 42.958267,4.173296 
	C43.491001,3.665307 43.750500,3.332735 44.253365,2.831734 
	C44.664486,2.108871 44.832245,1.554435 45.000000,1.000000 
z"/>
<path fill="#FBFEF5" opacity="1.000000" stroke="none" 
	d="
M47.189682,7.985947 
	C49.867947,7.990279 52.546211,7.994611 55.612236,7.999472 
	C56.000000,9.714358 56.000000,11.428718 55.740162,13.467312 
	C54.988979,13.526236 54.497631,13.260924 53.965546,12.649698 
	C53.011780,11.587022 52.098751,10.870260 51.185726,10.153499 
	C50.787193,10.925797 50.388660,11.698097 49.792801,12.512691 
	C49.595470,12.554985 49.191875,12.559731 49.199020,12.225052 
	C48.398273,10.936991 47.590385,9.983609 46.868553,8.763021 
	C47.032970,8.325860 47.111324,8.155904 47.189682,7.985947 
z"/>
<path fill="#FEFCF5" opacity="1.000000" stroke="none" 
	d="
M45.945454,49.893440 
	C45.986542,51.695213 46.027630,53.496986 46.034355,55.649380 
	C44.285641,56.000000 42.571285,56.000000 40.424477,55.611130 
	C39.957611,54.705112 39.923187,54.187965 40.093063,53.420509 
	C42.180058,52.077946 44.062756,50.985695 45.945454,49.893440 
z"/>
<path fill="#FEFDEA" opacity="1.000000" stroke="none" 
	d="
M54.006287,12.995613 
	C54.497631,13.260924 54.988979,13.526236 55.740162,13.895774 
	C56.000000,15.066662 56.000000,16.133324 55.786789,17.690237 
	C55.306561,18.353619 55.113068,18.587555 54.975525,19.007214 
	C54.957947,19.132132 54.991783,19.382149 54.758522,19.344324 
	C54.525265,19.306499 54.057251,19.240711 53.825699,19.098118 
	C53.246433,18.917698 52.898716,18.879869 52.486282,18.535259 
	C52.319397,17.823668 52.217236,17.418856 52.145363,16.635292 
	C52.169441,15.498439 52.163227,14.740336 52.438126,13.967316 
	C53.148254,13.633470 53.577271,13.314542 54.006287,12.995613 
z"/>
<path fill="#FFD278" opacity="1.000000" stroke="none" 
	d="
M56.000000,30.000000 
	C56.000000,32.041992 56.000000,34.083984 55.723255,36.732964 
	C54.932129,38.068024 54.417751,38.796093 53.903374,39.524162 
	C53.903370,39.524162 53.929241,39.131187 53.940025,38.668976 
	C53.950397,37.827057 53.949986,37.447346 53.984863,36.799286 
	C54.021370,36.351311 54.022587,36.171684 54.014679,35.715630 
	C53.968746,35.258526 53.931942,35.077854 53.935226,34.491810 
	C53.990551,32.724098 54.005787,31.361752 54.350746,30.011871 
	C55.120316,30.016224 55.560158,30.008112 56.000000,30.000000 
z"/>
<path fill="#E8B665" opacity="1.000000" stroke="none" 
	d="
M54.057251,19.240711 
	C54.057251,19.240711 54.525265,19.306499 54.856781,19.532341 
	C55.420559,19.966812 55.691128,20.047419 56.000000,20.000000 
	C56.000000,20.444445 56.000000,20.888889 55.656242,21.703773 
	C54.882153,23.036850 54.451824,23.999485 53.618973,24.970867 
	C52.415321,24.899092 51.614197,24.818569 50.873924,24.412066 
	C51.264694,23.049585 51.594612,22.013090 52.239853,20.956810 
	C53.055870,20.371588 53.556561,19.806149 54.057251,19.240711 
z"/>
<path fill="#FBFDF1" opacity="1.000000" stroke="none" 
	d="
M13.980134,4.827742 
	C13.986782,3.807293 13.993430,2.786844 14.000039,1.383197 
	C15.066569,1.000000 16.133139,1.000000 17.510994,1.230342 
	C18.215233,2.125620 18.608183,2.790556 18.649748,3.597257 
	C16.858952,4.101930 15.419543,4.464836 13.980134,4.827742 
z"/>
<path fill="#C1D450" opacity="1.000000" stroke="none" 
	d="
M27.000000,1.000000 
	C28.066786,1.000000 29.133574,1.000000 30.689182,1.228676 
	C31.365843,1.741060 31.620592,1.938392 31.959404,2.294714 
	C31.976559,2.540079 31.982716,3.031967 31.733414,3.305260 
	C29.992207,3.718536 28.500299,3.858520 26.757679,3.996242 
	C26.339893,3.992193 26.172821,3.990405 26.004478,3.741908 
	C26.003204,3.495199 26.000622,3.001780 26.243820,2.832327 
	C26.658010,2.108583 26.829006,1.554291 27.000000,1.000000 
z"/>
<path fill="#FBFDF1" opacity="1.000000" stroke="none" 
	d="
M44.583336,1.000000 
	C44.832245,1.554435 44.664486,2.108871 43.977280,2.849895 
	C43.274231,3.053394 43.090630,3.070305 42.692818,3.225493 
	C42.388477,3.682559 42.298355,4.001350 41.871620,4.224295 
	C40.672623,3.796111 39.810234,3.463774 38.990326,2.858478 
	C39.048923,2.402064 39.065044,2.218608 39.285835,1.913679 
	C39.743023,1.581336 39.912853,1.317267 40.000000,1.000000 
	C41.388889,1.000000 42.777779,1.000000 44.583336,1.000000 
z"/>
<path fill="#CB587A" opacity="1.000000" stroke="none" 
	d="
M30.000000,56.000000 
	C28.611002,56.000000 27.222006,56.000000 25.443539,55.737442 
	C25.053623,55.298916 25.053181,55.122952 25.053196,54.700935 
	C25.053652,54.454880 25.074972,53.963234 25.395243,53.974617 
	C26.142748,53.988194 26.569984,53.990383 27.373581,53.996445 
	C28.504225,53.995308 29.258511,53.990307 30.286892,53.995575 
	C30.740345,54.041481 30.919697,54.077126 31.063663,54.346565 
	C31.028275,54.580360 31.010660,55.052952 30.787052,55.143204 
	C30.289122,55.425365 30.101305,55.680878 30.000000,56.000000 
z"/>
<path fill="#E4FEFF" opacity="1.000000" stroke="none" 
	d="
M1.000000,17.416504 
	C1.468743,17.001326 1.937487,17.002653 2.756115,17.412189 
	C2.998732,19.099487 2.891465,20.378574 2.579586,21.730499 
	C2.374974,21.803339 1.959031,21.928549 1.718205,21.932079 
	C1.477380,21.935612 1.000000,22.000000 1.000000,22.000000 
	C1.000000,20.611002 1.000000,19.222006 1.000000,17.416504 
z"/>
<path fill="#FE8B8E" opacity="1.000000" stroke="none" 
	d="
M31.010660,55.052952 
	C31.010660,55.052952 31.028275,54.580360 31.485514,54.322891 
	C33.343769,54.185143 34.744781,54.304859 36.168190,54.689739 
	C36.127056,55.303268 36.063530,55.651634 36.000000,56.000000 
	C34.611084,56.000000 33.222168,56.000000 31.419296,55.763237 
	C31.005342,55.526474 31.010660,55.052952 31.010660,55.052952 
z"/>
<path fill="#6CA3D8" opacity="1.000000" stroke="none" 
	d="
M1.000000,34.000000 
	C1.000000,32.611004 1.000000,31.222006 1.332498,29.416632 
	C2.107993,28.999498 2.550989,28.998741 3.017725,29.287937 
	C3.072777,29.769276 3.104090,29.960659 3.121598,30.473579 
	C2.813773,31.794834 2.519752,32.794556 1.921638,33.859646 
	C1.411696,33.950012 1.205848,33.975006 1.000000,34.000000 
z"/>
<path fill="#F8B454" opacity="1.000000" stroke="none" 
	d="
M56.000000,29.600180 
	C55.560158,30.008112 55.120316,30.016224 54.330463,30.039431 
	C53.980453,30.054527 53.912643,30.063770 53.943405,29.680300 
	C53.978371,28.530497 53.982571,27.764164 53.999107,26.727158 
	C54.029484,26.276749 54.047527,26.097015 54.387939,25.932261 
	C55.140209,25.964827 55.570107,25.982414 56.000000,26.000000 
	C56.000000,27.066786 56.000000,28.133574 56.000000,29.600180 
z"/>
<path fill="#FFD278" opacity="1.000000" stroke="none" 
	d="
M56.000000,25.600004 
	C55.570107,25.982414 55.140209,25.964827 54.376362,25.693920 
	C54.042408,25.440601 54.021500,24.962120 54.021500,24.962120 
	C54.451824,23.999485 54.882153,23.036850 55.656242,22.037107 
	C56.000000,23.066669 56.000000,24.133339 56.000000,25.600004 
z"/>
<path fill="#FBFAB6" opacity="1.000000" stroke="none" 
	d="
M39.081165,2.035152 
	C39.065044,2.218608 39.048923,2.402064 38.823151,2.945735 
	C38.613495,3.305951 38.259907,3.442526 37.875969,3.295295 
	C36.701797,3.034847 35.911564,2.921629 35.093121,2.507620 
	C35.043270,1.804553 35.021633,1.402277 35.000000,1.000000 
	C36.066570,1.000000 37.133137,1.000000 38.607994,1.259741 
	C39.037907,1.691372 39.059536,1.863262 39.081165,2.035152 
z"/>
<path fill="#C9DD6B" opacity="1.000000" stroke="none" 
	d="
M26.571537,1.000000 
	C26.829006,1.554291 26.658010,2.108583 25.928583,2.704427 
	C24.108860,2.544451 22.847570,2.342924 21.446768,1.852422 
	C21.204836,1.375632 21.102419,1.187816 21.000000,1.000000 
	C22.714357,1.000000 24.428717,1.000000 26.571537,1.000000 
z"/>
<path fill="#FFF7E9" opacity="1.000000" stroke="none" 
	d="
M36.399994,56.000000 
	C36.063530,55.651634 36.127056,55.303268 36.200447,54.608025 
	C36.210312,54.261143 36.093163,54.130184 36.460899,54.179859 
	C37.072113,54.185707 37.315590,54.141876 37.537682,54.086639 
	C37.516304,54.075233 37.473850,54.103573 37.866642,53.976814 
	C38.802544,53.790306 39.345657,53.730560 39.888767,53.670815 
	C39.923187,54.187965 39.957611,54.705112 39.996017,55.611130 
	C38.933331,56.000000 37.866661,56.000000 36.399994,56.000000 
z"/>
<path fill="#FEFDEA" opacity="1.000000" stroke="none" 
	d="
M56.000000,42.625000 
	C55.307892,42.266705 54.615788,41.533413 54.298302,40.433792 
	C55.115284,40.044979 55.557644,40.022491 56.000000,40.000000 
	C56.000000,40.750000 56.000000,41.500000 56.000000,42.625000 
z"/>
<path fill="#FDF8C8" opacity="1.000000" stroke="none" 
	d="
M20.625000,1.000000 
	C21.102419,1.187816 21.204836,1.375632 21.100250,1.957820 
	C20.603399,2.708131 20.313551,3.064070 20.024147,3.399429 
	C20.024590,3.378848 20.045506,3.343676 19.777351,3.492595 
	C19.342085,3.759357 19.174971,3.877201 19.035858,3.859787 
	C19.063862,3.724529 19.001135,3.455491 19.001135,3.455491 
	C18.608183,2.790556 18.215233,2.125620 17.911140,1.230342 
	C18.750000,1.000000 19.500000,1.000000 20.625000,1.000000 
z"/>
<path fill="#E486BC" opacity="1.000000" stroke="none" 
	d="
M25.052738,54.946991 
	C25.053181,55.122952 25.053623,55.298916 25.027035,55.737442 
	C23.933430,56.000000 22.866861,56.000000 21.400146,56.000000 
	C20.977463,55.654282 20.954927,55.308563 20.918304,54.516090 
	C20.904215,54.069332 20.934475,53.689274 21.267914,53.789902 
	C22.060831,53.942398 22.520309,53.994270 23.161682,54.284615 
	C23.913296,54.664391 24.483017,54.805691 25.052738,54.946991 
z"/>
<path fill="#F1F28B" opacity="1.000000" stroke="none" 
	d="
M34.625000,1.000000 
	C35.021633,1.402277 35.043270,1.804553 34.739334,2.566536 
	C33.939049,2.954980 33.464340,2.983717 32.737770,3.010366 
	C32.318176,3.016174 32.150444,3.024071 31.982716,3.031967 
	C31.982716,3.031967 31.976559,2.540079 31.980675,2.032514 
	C31.989861,1.349966 31.994930,1.174983 32.000000,1.000000 
	C32.750000,1.000000 33.500000,1.000000 34.625000,1.000000 
z"/>
<path fill="#5BACD8" opacity="1.000000" stroke="none" 
	d="
M2.993986,28.997982 
	C2.550989,28.998741 2.107993,28.999498 1.332498,29.000128 
	C1.000000,28.555664 1.000000,28.111328 1.039871,27.081066 
	C1.340250,26.282637 1.600757,26.070137 2.143604,26.076855 
	C2.615291,27.196711 2.804638,28.097347 2.993986,28.997982 
z"/>
<path fill="#E4FEFF" opacity="1.000000" stroke="none" 
	d="
M1.861265,25.857637 
	C1.600757,26.070137 1.340250,26.282637 1.039871,26.747570 
	C1.000000,25.933331 1.000000,24.866661 1.193967,23.495483 
	C1.387934,23.190973 1.818335,23.232424 1.842503,23.449757 
	C1.866670,23.667091 2.010330,24.084450 1.960195,24.378525 
	C1.893795,25.067614 1.877530,25.462626 1.861265,25.857637 
z"/>
<path fill="#FFE9D7" opacity="1.000000" stroke="none" 
	d="
M56.000000,39.625000 
	C55.557644,40.022491 55.115284,40.044979 54.346069,40.132202 
	C54.019215,40.196941 53.938736,39.858707 53.921055,39.691437 
	C54.417751,38.796093 54.932129,38.068024 55.723255,37.169975 
	C56.000000,37.750000 56.000000,38.500000 56.000000,39.625000 
z"/>
<path fill="#B7DBEB" opacity="1.000000" stroke="none" 
	d="
M1.000000,34.375000 
	C1.205848,33.975006 1.411696,33.950012 1.909821,34.249641 
	C2.195399,35.346237 2.188701,36.118206 2.182003,36.890175 
	C1.986197,36.921326 1.790391,36.952480 1.297292,36.991821 
	C1.000000,36.250000 1.000000,35.500000 1.000000,34.375000 
z"/>
<path fill="#DFE473" opacity="1.000000" stroke="none" 
	d="
M31.750000,1.000000 
	C31.994930,1.174983 31.989861,1.349966 31.963522,1.787149 
	C31.620592,1.938392 31.365843,1.741060 31.089003,1.228676 
	C31.000000,1.000000 31.500000,1.000000 31.750000,1.000000 
z"/>
<path fill="#FDECB4" opacity="1.000000" stroke="none" 
	d="
M56.000000,19.750000 
	C55.691128,20.047419 55.420559,19.966812 55.090038,19.570166 
	C54.991783,19.382149 54.957947,19.132132 55.225502,19.051706 
	C55.662045,18.980856 55.831024,18.990429 56.000000,19.000000 
	C56.000000,19.000000 56.000000,19.500000 56.000000,19.750000 
z"/>
<path fill="#E8857B" opacity="1.000000" stroke="none" 
	d="
M30.787052,55.143204 
	C31.010660,55.052952 31.005342,55.526474 31.002670,55.763237 
	C31.000000,56.000000 30.500000,56.000000 30.250000,56.000000 
	C30.101305,55.680878 30.289122,55.425365 30.787052,55.143204 
z"/>
<path fill="#FFFBD6" opacity="1.000000" stroke="none" 
	d="
M56.000000,18.750000 
	C55.831024,18.990429 55.662045,18.980856 55.243080,18.926788 
	C55.113068,18.587555 55.306561,18.353619 55.786789,18.090244 
	C56.000000,18.000000 56.000000,18.500000 56.000000,18.750000 
z"/>
<path fill="#94EDFF" opacity="1.000000" stroke="none" 
	d="
M1.818335,23.232424 
	C1.818335,23.232424 1.387934,23.190973 1.193967,23.095486 
	C1.000000,23.000000 1.000000,22.500000 1.000000,22.250000 
	C1.000000,22.000000 1.477380,21.935612 1.709442,22.261280 
	C1.900448,22.802109 1.859392,23.017267 1.818335,23.232424 
z"/>
<path fill="#FFFBD6" opacity="1.000000" stroke="none" 
	d="
M39.285835,1.913679 
	C39.059536,1.863262 39.037907,1.691372 39.008141,1.259741 
	C39.000000,1.000000 39.500000,1.000000 39.750000,1.000000 
	C39.912853,1.317267 39.743023,1.581336 39.285835,1.913679 
z"/>
<path fill="#473F82" opacity="1.000000" stroke="none" 
	d="
M6.124808,42.942833 
	C5.486372,42.130085 4.847936,41.317333 4.394214,40.081703 
	C5.079620,39.181534 5.580313,38.704250 6.351497,38.452782 
	C7.073213,38.766613 7.524438,38.854626 8.217065,39.097427 
	C8.643860,39.205544 8.829252,39.158867 9.347862,39.241699 
	C10.393129,39.418770 11.105179,39.466335 12.045382,39.693130 
	C12.849762,39.949951 13.425986,40.027550 14.002766,40.423302 
	C14.002983,41.165852 14.002645,41.590248 13.890024,42.230461 
	C13.572234,42.712910 13.307972,42.893639 12.652357,42.840866 
	C10.254776,42.776451 8.189792,42.859642 6.124808,42.942833 
z"/>
<path fill="#56729F" opacity="1.000000" stroke="none" 
	d="
M2.384224,37.158470 
	C2.188701,36.118206 2.195399,35.346237 2.213914,34.184273 
	C2.519752,32.794556 2.813773,31.794834 3.367351,30.472317 
	C3.626906,30.149517 4.119648,30.190222 4.248409,30.496723 
	C4.592910,31.896345 4.808649,32.989464 5.057066,34.487328 
	C5.382388,35.876583 5.675032,36.861088 5.897273,37.951477 
	C5.826869,38.057354 6.009675,38.234127 5.473263,38.672806 
	C4.543892,39.354378 4.150933,39.597267 3.757973,39.840157 
	C3.367464,39.035690 2.976954,38.231228 2.384224,37.158470 
z"/>
<path fill="#554991" opacity="1.000000" stroke="none" 
	d="
M6.153078,43.238533 
	C8.189792,42.859642 10.254776,42.776451 12.657290,43.093544 
	C12.995905,43.662205 12.996987,43.830585 12.676506,44.040031 
	C11.898659,44.722065 11.442373,45.363026 10.553865,46.017097 
	C9.547671,46.093430 8.973700,46.156658 8.399727,46.219887 
	C7.660267,45.324669 6.920807,44.429455 6.153078,43.238533 
z"/>
<path fill="#884B8E" opacity="1.000000" stroke="none" 
	d="
M17.205120,52.775482 
	C16.227203,52.341705 15.249288,51.907925 14.163467,50.853088 
	C14.707622,49.489788 15.359681,48.747540 16.283045,48.244965 
	C16.774458,49.918774 16.994568,51.352921 17.207586,52.796841 
	C17.200495,52.806618 17.205120,52.775482 17.205120,52.775482 
z"/>
<path fill="#70438D" opacity="1.000000" stroke="none" 
	d="
M16.011742,48.005295 
	C15.359681,48.747540 14.707622,49.489788 14.043092,50.542160 
	C13.134366,50.371693 12.238111,49.891102 11.310415,48.890564 
	C11.519035,47.914356 11.759097,47.458092 12.400242,47.001175 
	C13.870828,47.002922 14.940329,47.005325 16.010418,47.257080 
	C16.011005,47.506424 16.011742,48.005295 16.011742,48.005295 
z"/>
<path fill="#64528B" opacity="1.000000" stroke="none" 
	d="
M11.999159,47.001831 
	C11.759097,47.458092 11.519035,47.914356 11.175924,48.607666 
	C10.282018,48.161053 9.491161,47.477402 8.550016,46.506821 
	C8.973700,46.156658 9.547671,46.093430 10.803770,46.018993 
	C11.485896,46.007782 11.985334,46.013943 11.987896,46.260929 
	C11.990457,46.507915 11.999161,47.001831 11.999159,47.001831 
z"/>
<path fill="#884B8E" opacity="1.000000" stroke="none" 
	d="
M20.940735,54.256432 
	C19.850185,54.082382 18.723112,53.721233 17.400581,53.067780 
	C17.205120,52.775482 17.200495,52.806618 17.515642,52.858467 
	C18.552694,52.605259 19.274597,52.300201 20.220654,52.130898 
	C20.608028,52.740856 20.771252,53.215065 20.934475,53.689274 
	C20.934475,53.689274 20.904215,54.069332 20.940735,54.256432 
z"/>
<path fill="#B8C6D2" opacity="1.000000" stroke="none" 
	d="
M3.790608,39.874287 
	C4.150933,39.597267 4.543892,39.354378 5.429134,38.601181 
	C5.921418,38.090878 6.015721,37.943768 6.093372,38.000427 
	C6.171023,38.057091 6.081005,38.226967 6.081005,38.226967 
	C5.580313,38.704250 5.079620,39.181534 4.247244,39.793568 
	C3.915559,39.928318 3.823242,39.908413 3.790608,39.874287 
z"/>
<path fill="#9CC570" opacity="1.000000" stroke="none" 
	d="
M13.802283,5.087847 
	C15.419543,4.464836 16.858952,4.101930 18.649748,3.597257 
	C19.001135,3.455491 19.063862,3.724529 19.039230,4.193646 
	C19.010956,5.107759 19.007315,5.552753 19.000500,6.374822 
	C19.003992,7.507320 19.010656,8.262746 18.684059,9.013340 
	C17.906317,9.013000 17.461836,9.017493 16.615507,9.009852 
	C15.145555,8.993377 14.077451,8.989035 13.009746,8.673823 
	C13.014857,7.948874 13.019569,7.534792 13.024282,7.120710 
	C13.224332,6.529790 13.424382,5.938871 13.802283,5.087847 
z"/>
<path fill="#61C1B5" opacity="1.000000" stroke="none" 
	d="
M4.143773,17.199093 
	C4.752568,16.149542 5.361363,15.099992 6.591300,14.058094 
	C7.808734,14.377784 8.405027,14.689822 9.001020,15.335358 
	C9.001574,16.113609 9.002426,16.558363 9.001179,17.250458 
	C8.999079,17.497797 8.991345,17.992437 8.607735,17.993847 
	C7.453881,18.002169 6.683638,18.009077 5.655143,18.001083 
	C4.979185,17.723818 4.561479,17.461456 4.143773,17.199093 
z"/>
<path fill="#83C3CC" opacity="1.000000" stroke="none" 
	d="
M3.887649,17.142967 
	C4.561479,17.461456 4.979185,17.723818 5.726926,18.360386 
	C6.815145,19.251770 7.573329,19.768953 8.325014,20.530518 
	C8.318517,20.774897 8.384609,21.262535 8.089879,21.222727 
	C7.602490,21.136076 7.409832,21.089235 6.903368,21.030857 
	C5.872346,20.985010 5.155128,20.950697 4.437911,20.916384 
	C4.718349,21.410309 4.998786,21.904234 5.306713,22.662525 
	C5.253361,23.269650 5.172520,23.612406 4.745749,23.972996 
	C3.938151,23.992741 3.476483,23.994656 2.997618,23.606209 
	C2.915013,22.696451 2.849606,22.177055 2.784198,21.657661 
	C2.891465,20.378574 2.998732,19.099487 3.107111,17.436626 
	C3.282657,17.064182 3.457091,17.075512 3.887649,17.142967 
z"/>
<path fill="#84BF80" opacity="1.000000" stroke="none" 
	d="
M12.696632,7.150805 
	C13.019569,7.534792 13.014857,7.948874 13.010039,8.943599 
	C13.015953,9.703750 13.021973,9.883258 13.025873,10.279652 
	C13.023754,10.496536 13.019591,10.932001 13.011567,11.206738 
	C12.996460,11.664575 12.989378,11.847674 12.735634,12.029941 
	C12.488971,12.029108 11.995649,12.031489 11.831089,11.784224 
	C10.821447,11.090866 9.976368,10.644775 9.131288,10.198685 
	C10.210520,9.192757 11.289751,8.186829 12.696632,7.150805 
z"/>
<path fill="#7EBE92" opacity="1.000000" stroke="none" 
	d="
M8.865440,10.293488 
	C9.976368,10.644775 10.821447,11.090866 11.661731,12.023597 
	C11.104796,12.676744 10.552660,12.843252 9.709136,12.977737 
	C8.974286,12.418642 8.530822,11.891566 8.087358,11.364491 
	C8.258103,11.039091 8.428849,10.713691 8.865440,10.293488 
z"/>
<path fill="#67BCA1" opacity="1.000000" stroke="none" 
	d="
M7.813489,11.483322 
	C8.530822,11.891566 8.974286,12.418642 9.709599,13.308978 
	C10.000833,14.114140 10.000216,14.556041 9.750031,14.999240 
	C9.500463,15.000539 9.001320,15.001861 9.001320,15.001860 
	C8.405027,14.689822 7.808734,14.377784 6.891036,13.945553 
	C6.892961,13.084291 7.216290,12.343223 7.813489,11.483322 
z"/>
<path fill="#DF4C31" opacity="1.000000" stroke="none" 
	d="
M40.093063,53.420509 
	C39.345657,53.730560 38.802544,53.790306 37.933411,53.774635 
	C37.607388,53.699223 37.892097,53.387974 37.928150,52.990692 
	C37.978016,52.062943 37.991829,51.532478 38.007114,50.752594 
	C38.008583,50.503178 38.011753,50.004345 38.276253,49.882195 
	C39.026505,49.172882 39.512264,48.585720 40.330444,47.998833 
	C41.105759,47.996876 41.548645,47.994644 42.362930,47.993477 
	C43.474861,47.967445 44.215401,47.940353 45.146919,48.000908 
	C45.585552,48.238979 45.767235,48.447021 45.882950,48.712669 
	C45.885906,48.909901 45.888859,49.107136 45.918633,49.598907 
	C44.062756,50.985695 42.180058,52.077946 40.093063,53.420509 
z"/>
<path fill="#EE5232" opacity="1.000000" stroke="none" 
	d="
M46.121513,48.734592 
	C45.767235,48.447021 45.585552,48.238979 45.160332,47.635864 
	C44.328613,46.120197 43.674458,45.057217 43.011658,43.620110 
	C43.003704,42.497398 43.004391,41.748814 43.324760,40.861542 
	C44.761219,40.486893 45.877991,40.250931 46.995270,40.345863 
	C46.997643,41.118568 46.999508,41.560383 47.002373,42.464474 
	C47.055298,44.480652 47.107227,46.034554 47.159153,47.588455 
	C46.892796,47.977810 46.626438,48.367165 46.121513,48.734592 
z"/>
<path fill="#D95A37" opacity="1.000000" stroke="none" 
	d="
M47.462791,47.448208 
	C47.107227,46.034554 47.055298,44.480652 47.334862,42.463547 
	C48.109669,41.999348 48.552982,41.998352 49.086117,42.223606 
	C49.610607,42.914803 50.045284,43.379749 50.479958,43.844696 
	C49.575451,44.999119 48.670940,46.153542 47.462791,47.448208 
z"/>
<path fill="#CE6848" opacity="1.000000" stroke="none" 
	d="
M50.857536,43.688469 
	C50.045284,43.379749 49.610607,42.914803 49.085194,41.938755 
	C48.956520,41.051102 48.918591,40.674545 49.056660,40.190773 
	C49.479042,39.968346 49.695290,39.811600 50.221931,39.457787 
	C51.052677,39.216099 51.542896,39.129936 52.032776,39.010597 
	C52.032433,38.977425 51.974274,38.945484 51.974274,38.945484 
	C51.727886,40.474403 51.481499,42.003326 50.857536,43.688469 
z"/>
<path fill="#D79457" opacity="1.000000" stroke="none" 
	d="
M53.949574,37.067638 
	C53.949986,37.447346 53.950397,37.827057 54.003830,38.482689 
	C53.592388,38.912159 53.127922,39.065701 52.318863,39.082363 
	C51.974274,38.945484 52.032433,38.977425 51.996464,38.673195 
	C52.016979,37.921013 52.073463,37.473061 52.433784,37.028984 
	C53.141602,37.044453 53.545589,37.056046 53.949574,37.067638 
z"/>
<path fill="#E6D74A" opacity="1.000000" stroke="none" 
	d="
M46.867653,7.774673 
	C47.111324,8.155904 47.032970,8.325860 46.504940,8.751840 
	C45.359035,10.615656 44.662807,12.223448 43.713028,13.904638 
	C43.283680,13.981015 43.107883,13.983994 42.566666,14.002829 
	C41.467861,14.010372 40.734470,14.002059 40.006088,13.620455 
	C39.984333,10.859755 39.957561,8.472344 40.155106,5.988918 
	C40.921860,5.652205 41.464302,5.411508 42.006748,5.170811 
	C43.519707,5.968340 45.032669,6.765870 46.867653,7.774673 
z"/>
<path fill="#DBD950" opacity="1.000000" stroke="none" 
	d="
M42.233131,5.012161 
	C41.464302,5.411508 40.921860,5.652205 39.966980,5.878074 
	C39.312454,5.692285 39.127415,5.473160 38.949829,4.964264 
	C38.686783,4.295947 38.473347,3.869236 38.259911,3.442525 
	C38.259907,3.442526 38.613495,3.305951 38.780670,3.218694 
	C39.810234,3.463774 40.672623,3.796111 41.959869,4.239033 
	C42.384735,4.349617 42.565945,4.312990 42.590103,4.340643 
	C42.614258,4.368295 42.685028,4.348711 42.685028,4.348711 
	C42.609856,4.516978 42.534683,4.685246 42.233131,5.012161 
z"/>
<path fill="#FEFEE0" opacity="1.000000" stroke="none" 
	d="
M42.907032,3.087216 
	C43.090630,3.070305 43.274231,3.053394 43.733917,3.018322 
	C43.750500,3.332735 43.491001,3.665307 42.958267,4.173296 
	C42.685028,4.348711 42.614258,4.368295 42.718086,4.043297 
	C42.850285,3.507938 42.878658,3.297577 42.907032,3.087216 
z"/>
<path fill="#E6D660" opacity="1.000000" stroke="none" 
	d="
M43.966576,13.831242 
	C44.662807,12.223448 45.359035,10.615656 46.418877,9.019045 
	C47.590385,9.983609 48.398273,10.936991 49.064659,12.531930 
	C48.595669,13.455246 48.268188,13.737004 47.544594,14.019063 
	C46.087849,13.956656 45.027214,13.893949 43.966576,13.831242 
z"/>
<path fill="#FEFEE0" opacity="1.000000" stroke="none" 
	d="
M53.965546,12.649698 
	C53.577271,13.314542 53.148254,13.633470 52.117260,13.861631 
	C51.006901,13.337374 50.498516,12.903885 49.990131,12.470396 
	C50.388660,11.698097 50.787193,10.925797 51.185726,10.153499 
	C52.098751,10.870260 53.011780,11.587022 53.965546,12.649698 
z"/>
<path fill="#E7C761" opacity="1.000000" stroke="none" 
	d="
M49.792801,12.512691 
	C50.498516,12.903885 51.006901,13.337374 51.836147,13.876549 
	C52.163227,14.740336 52.169441,15.498439 51.757015,16.632439 
	C50.311901,17.010626 49.285427,17.012915 48.176567,16.646198 
	C48.043030,15.524381 47.991871,14.771572 47.940712,14.018763 
	C48.268188,13.737004 48.595669,13.455246 49.057510,12.866610 
	C49.191875,12.559731 49.595470,12.554985 49.792801,12.512691 
z"/>
<path fill="#DAB862" opacity="1.000000" stroke="none" 
	d="
M48.258949,17.015205 
	C49.285427,17.012915 50.311901,17.010626 51.726723,17.011189 
	C52.217236,17.418856 52.319397,17.823668 52.016174,18.583080 
	C50.691959,18.993361 49.773125,19.049040 48.630600,19.073668 
	C48.406910,19.042618 47.957623,18.982147 47.996078,18.652187 
	C48.109344,17.886555 48.184147,17.450880 48.258949,17.015205 
z"/>
<path fill="#E9CB85" opacity="1.000000" stroke="none" 
	d="
M48.854294,19.104717 
	C49.773125,19.049040 50.691959,18.993361 52.080894,18.889862 
	C52.898716,18.879869 53.246433,18.917698 53.825699,19.098118 
	C53.556561,19.806149 53.055870,20.371588 52.002689,20.727699 
	C50.585911,20.368595 49.721619,20.218815 48.860168,19.827560 
	C48.863010,19.586082 48.854294,19.104717 48.854294,19.104717 
z"/>
<path fill="#DB7F2D" opacity="1.000000" stroke="none" 
	d="
M54.000740,30.026966 
	C54.005787,31.361752 53.990551,32.724098 53.724216,34.503281 
	C53.473114,34.920120 53.048656,34.929169 52.741131,34.956734 
	C52.233803,35.033772 52.033997,35.083248 51.572010,35.039467 
	C50.891079,34.596962 50.472328,34.247719 50.048748,33.667374 
	C50.043919,33.436268 50.014889,32.974346 49.892475,32.692375 
	C49.843761,31.274057 49.917461,30.137716 50.245743,28.993931 
	C50.670021,28.980814 50.839722,28.975140 51.294006,29.106071 
	C52.356613,29.516376 53.134628,29.790073 53.912643,30.063770 
	C53.912643,30.063770 53.980453,30.054527 54.000740,30.026966 
z"/>
<path fill="#D3A172" opacity="1.000000" stroke="none" 
	d="
M51.834194,35.132725 
	C52.033997,35.083248 52.233803,35.033772 52.827984,35.194893 
	C53.489506,35.601017 53.756653,35.796539 54.023800,35.992062 
	C54.022587,36.171684 54.021370,36.351311 53.984863,36.799286 
	C53.545589,37.056046 53.141602,37.044453 52.316639,36.725784 
	C51.875172,35.990047 51.854683,35.561386 51.834194,35.132725 
z"/>
<path fill="#D79457" opacity="1.000000" stroke="none" 
	d="
M54.014679,35.715630 
	C53.756653,35.796539 53.489506,35.601017 53.135509,35.167328 
	C53.048656,34.929169 53.473114,34.920120 53.684124,34.908649 
	C53.931942,35.077854 53.968746,35.258526 54.014679,35.715630 
z"/>
<path fill="#FFFBD6" opacity="1.000000" stroke="none" 
	d="
M48.857330,20.069036 
	C49.721619,20.218815 50.585911,20.368595 51.687363,20.747482 
	C51.594612,22.013090 51.264694,23.049585 50.886131,24.463438 
	C50.837482,24.840794 50.933914,24.876640 50.603897,24.849981 
	C49.839970,24.759899 49.406067,24.696474 48.916809,24.318153 
	C48.860085,22.691849 48.858707,21.380442 48.857330,20.069036 
z"/>
<path fill="#ECA549" opacity="1.000000" stroke="none" 
	d="
M53.618973,24.970867 
	C54.021500,24.962120 54.042408,25.440601 54.053986,25.678942 
	C54.047527,26.097015 54.029484,26.276749 53.627499,26.727551 
	C52.499531,26.999439 51.755508,27.000263 51.002834,26.647362 
	C50.974094,25.821302 50.954006,25.348972 50.933914,24.876640 
	C50.933914,24.876640 50.837482,24.840794 50.825275,24.789421 
	C51.614197,24.818569 52.415321,24.899092 53.618973,24.970867 
z"/>
<path fill="#C1D245" opacity="1.000000" stroke="none" 
	d="
M31.733414,3.305260 
	C32.150444,3.024071 32.318176,3.016174 32.841507,3.270566 
	C33.463818,4.024611 33.730526,4.516368 33.995968,5.340728 
	C33.992809,6.117070 33.990917,6.560811 33.651932,7.056213 
	C32.211357,8.071124 31.107885,9.034373 29.999620,9.644770 
	C28.999376,7.860223 28.003923,6.428528 27.007992,4.747251 
	C27.007513,4.497669 27.008394,3.998504 27.008394,3.998504 
	C28.500299,3.858520 29.992207,3.718536 31.733414,3.305260 
z"/>
<path fill="#B3CA5B" opacity="1.000000" stroke="none" 
	d="
M20.023705,3.420010 
	C20.313551,3.064070 20.603399,2.708131 21.239765,2.246794 
	C22.847570,2.342924 24.108860,2.544451 25.685387,2.873879 
	C26.000622,3.001780 26.003204,3.495199 25.758289,3.910802 
	C25.341011,4.883345 25.168644,5.440283 24.662481,5.998095 
	C23.883175,6.002697 23.437662,6.006427 22.660294,6.007545 
	C21.885992,6.002836 21.443550,6.000739 20.952219,5.551711 
	C20.743979,4.528027 20.584625,3.951275 20.374891,3.431959 
	C20.324511,3.489396 20.023705,3.420010 20.023705,3.420010 
z"/>
<path fill="#B2C64E" opacity="1.000000" stroke="none" 
	d="
M24.996277,5.997221 
	C25.168644,5.440283 25.341011,4.883345 25.759563,4.157512 
	C26.172821,3.990405 26.339893,3.992193 26.757679,3.996242 
	C27.008394,3.998504 27.007513,4.497669 27.004961,5.163628 
	C27.006783,7.217170 27.011158,8.604753 26.752533,10.210794 
	C26.327593,11.317045 26.165651,12.204838 25.858730,13.098520 
	C25.713749,13.104411 25.423927,13.089537 25.275131,12.760618 
	C24.977518,11.502019 24.828705,10.572337 24.783878,9.195339 
	C24.924000,7.831089 24.960138,6.914155 24.996277,5.997221 
z"/>
<path fill="#FBFAB6" opacity="1.000000" stroke="none" 
	d="
M42.692818,3.225493 
	C42.878658,3.297577 42.850285,3.507938 42.693928,4.015644 
	C42.565945,4.312990 42.384735,4.349617 42.296482,4.334878 
	C42.298355,4.001350 42.388477,3.682559 42.692818,3.225493 
z"/>
<path fill="#CC3845" opacity="1.000000" stroke="none" 
	d="
M36.178055,54.342857 
	C34.744781,54.304859 33.343769,54.185143 31.520901,54.089096 
	C30.919697,54.077126 30.740345,54.041481 30.283398,53.665634 
	C30.008936,52.882870 30.012072,52.440315 30.273397,51.785782 
	C30.351517,50.382401 30.171444,49.190998 29.995316,47.624969 
	C30.000122,46.501083 30.000984,45.751827 30.251133,45.002296 
	C30.500420,45.002022 30.998991,45.003914 31.105648,45.263069 
	C31.478252,46.014359 31.744198,46.506493 32.115311,47.257957 
	C32.480484,48.011547 32.740490,48.505814 33.000332,49.249969 
	C33.000168,49.499863 33.000259,49.999649 33.052856,50.343433 
	C34.065926,51.125557 35.026402,51.563892 35.987190,52.244301 
	C35.987499,52.486370 35.984612,52.970505 35.993401,53.262146 
	C36.032513,53.745918 36.062840,53.938049 36.093163,54.130184 
	C36.093163,54.130184 36.210312,54.261143 36.178055,54.342857 
z"/>
<path fill="#AC3973" opacity="1.000000" stroke="none" 
	d="
M26.997219,53.992577 
	C26.569984,53.990383 26.142748,53.988194 25.368008,53.948196 
	C25.020504,53.910385 24.976402,53.849461 24.752991,53.593849 
	C24.024212,51.894150 23.518845,50.450062 23.255720,48.836945 
	C23.668915,48.115044 23.839865,47.562180 24.270685,46.905876 
	C25.019983,46.536205 25.509415,46.269974 26.000687,46.331108 
	C26.012075,47.094425 26.021624,47.530376 26.021816,48.308708 
	C26.342407,49.434807 26.672356,50.218521 27.001175,51.376427 
	C26.999107,52.497936 26.998163,53.245258 26.997219,53.992577 
z"/>
<path fill="#BD466A" opacity="1.000000" stroke="none" 
	d="
M27.373581,53.996445 
	C26.998163,53.245258 26.999107,52.497936 27.333918,51.375591 
	C28.111479,50.998508 28.555174,50.996449 29.110386,51.214371 
	C29.423601,51.710480 29.688036,51.898281 30.015207,51.997761 
	C30.012072,52.440315 30.008936,52.882870 30.009298,53.655365 
	C29.258511,53.990307 28.504225,53.995308 27.373581,53.996445 
z"/>
<path fill="#D46EA1" opacity="1.000000" stroke="none" 
	d="
M25.053196,54.700935 
	C24.483017,54.805691 23.913296,54.664391 23.494770,54.248940 
	C24.089443,53.933018 24.532923,53.891239 24.976402,53.849461 
	C24.976402,53.849461 25.020504,53.910385 25.047737,53.936810 
	C25.074972,53.963234 25.053652,54.454880 25.053196,54.700935 
z"/>
<path fill="#89D6E5" opacity="1.000000" stroke="none" 
	d="
M2.579586,21.730499 
	C2.849606,22.177055 2.915013,22.696451 2.748053,23.646961 
	C2.347233,24.080200 2.178782,24.082325 2.010330,24.084450 
	C2.010330,24.084450 1.866670,23.667091 1.842503,23.449757 
	C1.859392,23.017267 1.900448,22.802109 1.950268,22.257748 
	C1.959031,21.928549 2.374974,21.803339 2.579586,21.730499 
z"/>
<path fill="#5BA2BD" opacity="1.000000" stroke="none" 
	d="
M1.960195,24.378525 
	C2.178782,24.082325 2.347233,24.080200 2.765250,24.037323 
	C3.476483,23.994656 3.938151,23.992741 4.751631,24.367676 
	C5.401029,26.273287 5.698616,27.802050 5.813838,29.523773 
	C5.127531,29.874561 4.623589,30.032391 4.119647,30.190220 
	C4.119648,30.190222 3.626906,30.149517 3.381154,30.150780 
	C3.104090,29.960659 3.072777,29.769276 3.017725,29.287937 
	C2.804638,28.097347 2.615291,27.196711 2.143604,26.076855 
	C1.877530,25.462626 1.893795,25.067614 1.960195,24.378525 
z"/>
<path fill="#F8A345" opacity="1.000000" stroke="none" 
	d="
M51.011486,27.001087 
	C51.755508,27.000263 52.499531,26.999439 53.615162,26.998222 
	C53.982571,27.764164 53.978371,28.530497 53.943405,29.680300 
	C53.134628,29.790073 52.356613,29.516376 51.292099,28.778397 
	C51.007561,27.876438 51.009525,27.438763 51.011486,27.001087 
z"/>
<path fill="#DEDE6A" opacity="1.000000" stroke="none" 
	d="
M33.997234,5.008125 
	C33.730526,4.516368 33.463818,4.024611 33.093369,3.272654 
	C33.464340,2.983717 33.939049,2.954980 34.767548,2.867327 
	C35.911564,2.921629 36.701797,3.034847 37.875969,3.295295 
	C38.473347,3.869236 38.686783,4.295947 38.644909,5.028233 
	C37.593285,5.543398 36.796978,5.752989 35.829983,5.723534 
	C35.105278,5.325700 34.551254,5.166913 33.997234,5.008125 
z"/>
<path fill="#CB5553" opacity="1.000000" stroke="none" 
	d="
M36.460899,54.179859 
	C36.062840,53.938049 36.032513,53.745918 36.435921,53.352394 
	C37.156818,53.240971 37.443974,53.330944 37.749619,53.605827 
	C37.768108,53.790741 37.559063,54.098049 37.559063,54.098049 
	C37.315590,54.141876 37.072113,54.185707 36.460899,54.179859 
z"/>
<path fill="#FEFCF5" opacity="1.000000" stroke="none" 
	d="
M37.537682,54.086639 
	C37.559063,54.098049 37.768108,53.790741 37.787842,53.595230 
	C37.807575,53.399715 37.892097,53.387974 37.892097,53.387974 
	C37.892097,53.387974 37.607388,53.699223 37.540619,53.901398 
	C37.473850,54.103573 37.516304,54.075233 37.537682,54.086639 
z"/>
<path fill="#A5C054" opacity="1.000000" stroke="none" 
	d="
M20.425272,3.374523 
	C20.584625,3.951275 20.743979,4.528027 20.619202,5.552271 
	C19.891275,5.999092 19.447474,5.998420 19.003674,5.997748 
	C19.007315,5.552753 19.010956,5.107759 19.011227,4.328904 
	C19.174971,3.877201 19.342085,3.759357 19.874294,3.479247 
	C20.239391,3.316981 20.425272,3.374523 20.425272,3.374523 
z"/>
<path fill="#FBFDF1" opacity="1.000000" stroke="none" 
	d="
M20.374891,3.431959 
	C20.425272,3.374523 20.239391,3.316981 20.142448,3.330328 
	C20.045506,3.343676 20.024590,3.378848 20.024147,3.399429 
	C20.023705,3.420010 20.324511,3.489396 20.374891,3.431959 
z"/>
<path fill="#9F458E" opacity="1.000000" stroke="none" 
	d="
M24.752991,53.593849 
	C24.532923,53.891239 24.089443,53.933018 23.312876,54.010468 
	C22.520309,53.994270 22.060831,53.942398 21.267914,53.789902 
	C20.771252,53.215065 20.608028,52.740856 20.259306,51.818077 
	C20.716839,50.575668 21.359869,49.781826 22.255535,48.992863 
	C22.676607,49.000481 22.845041,49.003227 23.013475,49.005974 
	C23.518845,50.450062 24.024212,51.894150 24.752991,53.593849 
z"/>
<path fill="#F9FCFF" opacity="1.000000" stroke="none" 
	d="
M11.817228,39.513908 
	C11.105179,39.466335 10.393129,39.418770 9.255327,38.996170 
	C8.554175,38.415733 8.278776,38.210339 7.994980,37.993816 
	C7.986583,37.982693 7.969483,37.960686 7.979949,37.655174 
	C8.209428,36.591751 8.428439,35.833843 9.042156,35.062981 
	C11.584416,34.969967 14.228162,35.284813 12.223409,31.495335 
	C13.662791,30.450975 14.930946,29.675127 16.407806,28.858143 
	C16.616508,28.817003 17.040787,28.848351 17.103027,29.197506 
	C17.580584,30.373692 17.995899,31.200720 18.299515,32.361847 
	C18.325621,33.134785 18.463428,33.573620 18.389656,34.329227 
	C17.975039,35.377430 17.772003,36.108868 17.302198,36.947861 
	C16.267923,37.629150 15.500419,38.202873 14.347775,38.753117 
	C13.247501,38.991058 12.532365,39.252483 11.817228,39.513908 
z"/>
<path fill="#664297" opacity="1.000000" stroke="none" 
	d="
M12.400244,47.001175 
	C11.999161,47.001831 11.990457,46.507915 12.235653,46.091980 
	C12.653255,45.117016 12.825663,44.557987 12.998070,43.998962 
	C12.996987,43.830585 12.995905,43.662205 12.989887,43.241150 
	C13.307972,42.893639 13.572234,42.712910 14.235462,42.201744 
	C15.794006,41.644794 16.894829,41.332375 17.995144,41.349926 
	C17.996323,42.120388 17.998009,42.560883 17.952267,43.330418 
	C17.272888,44.775696 16.640940,45.891933 16.004816,47.004662 
	C16.000641,47.001160 16.009830,47.007732 16.009830,47.007732 
	C14.940329,47.005325 13.870828,47.002922 12.400244,47.001175 
z"/>
<path fill="#4C2F7A" opacity="1.000000" stroke="none" 
	d="
M17.995653,41.019958 
	C16.894829,41.332375 15.794006,41.644794 14.347746,41.985924 
	C14.002645,41.590248 14.002983,41.165852 14.202021,40.241020 
	C14.511451,39.419254 14.622182,39.097927 14.732913,38.776600 
	C15.500419,38.202873 16.267923,37.629150 17.630875,37.059090 
	C19.159912,37.695232 20.093506,38.327713 21.019829,39.216499 
	C21.009216,39.643387 21.005871,39.813972 20.662437,39.987926 
	C19.546783,40.334183 18.771217,40.677071 17.995653,41.019958 
z"/>
<path fill="#A09AC7" opacity="1.000000" stroke="none" 
	d="
M14.347775,38.753117 
	C14.622182,39.097927 14.511451,39.419254 14.201466,39.922863 
	C13.425986,40.027550 12.849762,39.949951 12.045383,39.693130 
	C12.532365,39.252483 13.247501,38.991058 14.347775,38.753117 
z"/>
<path fill="#F9FCFF" opacity="1.000000" stroke="none" 
	d="
M7.975663,38.942638 
	C7.524438,38.854626 7.073213,38.766613 6.351497,38.452782 
	C6.081005,38.226967 6.171023,38.057091 6.093269,37.966873 
	C6.015516,37.876656 5.979381,37.802490 6.148091,37.664917 
	C6.867695,37.671791 7.418589,37.816238 7.969483,37.960686 
	C7.969483,37.960686 7.986583,37.982693 7.975085,38.227837 
	C7.963587,38.472980 7.975663,38.942638 7.975663,38.942638 
z"/>
<path fill="#E8E5FC" opacity="1.000000" stroke="none" 
	d="
M8.217066,39.097427 
	C7.975663,38.942638 7.963587,38.472980 7.983482,38.238960 
	C8.278776,38.210339 8.554175,38.415733 8.922109,38.866661 
	C8.829252,39.158867 8.643860,39.205544 8.217066,39.097427 
z"/>
<path fill="#376699" opacity="1.000000" stroke="none" 
	d="
M4.248409,30.496723 
	C4.623589,30.032391 5.127531,29.874561 6.076869,29.635933 
	C7.669633,30.272890 8.817000,30.990643 9.929930,32.089687 
	C9.438682,33.029934 8.981871,33.588882 8.172273,34.174522 
	C6.887786,34.161667 5.956087,34.122128 5.024387,34.082588 
	C4.808649,32.989464 4.592910,31.896345 4.248409,30.496723 
z"/>
<path fill="#EBFDFF" opacity="1.000000" stroke="none" 
	d="
M5.057066,34.487331 
	C5.956087,34.122128 6.887786,34.161667 8.238960,34.401768 
	C8.658436,34.602329 8.647452,35.075935 8.647451,35.075935 
	C8.428439,35.833843 8.209428,36.591751 7.979949,37.655174 
	C7.418589,37.816238 6.867695,37.671791 6.122950,37.683670 
	C5.929100,37.839996 5.967677,37.845596 5.967676,37.845596 
	C5.675032,36.861088 5.382388,35.876583 5.057066,34.487331 
z"/>
<path fill="#E8E5FC" opacity="1.000000" stroke="none" 
	d="
M5.897273,37.951477 
	C5.967677,37.845596 5.929100,37.839996 5.954240,37.821243 
	C5.979381,37.802490 6.015516,37.876656 6.015618,37.910210 
	C6.015721,37.943768 5.921418,38.090878 5.965546,38.162502 
	C6.009675,38.234127 5.826869,38.057354 5.897273,37.951477 
z"/>
<path fill="#674BA0" opacity="1.000000" stroke="none" 
	d="
M12.676507,44.040031 
	C12.825663,44.557987 12.653255,45.117016 12.233091,45.844994 
	C11.985334,46.013943 11.485896,46.007782 11.235992,46.005882 
	C11.442373,45.363026 11.898659,44.722065 12.676507,44.040031 
z"/>
<path fill="#8D3F92" opacity="1.000000" stroke="none" 
	d="
M22.002899,48.987988 
	C21.359869,49.781826 20.716839,50.575668 20.035156,51.682327 
	C19.274597,52.300201 18.552694,52.605259 17.522734,52.848690 
	C16.994568,51.352921 16.774458,49.918774 16.283045,48.244965 
	C16.011742,48.005295 16.011005,47.506424 16.010418,47.257080 
	C16.009830,47.007732 16.000641,47.001160 16.357071,47.002617 
	C18.147671,46.324936 19.581841,45.645802 21.261951,44.973785 
	C21.507889,44.980904 22.000277,44.987972 22.001368,45.388176 
	C22.002605,46.854912 22.002752,47.921452 22.002899,48.987988 
z"/>
<path fill="#68B15F" opacity="1.000000" stroke="none" 
	d="
M17.017353,9.021986 
	C17.461836,9.017493 17.906317,9.013000 19.070431,9.062633 
	C20.043854,9.173747 20.297642,9.230737 20.452213,9.682500 
	C20.140554,11.721581 19.928110,13.365888 19.379818,15.014888 
	C18.366558,15.008942 17.689148,14.998302 17.007645,14.657843 
	C17.001513,13.888473 16.999468,13.448922 16.995268,12.755827 
	C16.989723,12.333282 16.986336,12.164279 16.989706,11.623140 
	C17.003428,10.507998 17.010391,9.764992 17.017353,9.021986 
z"/>
<path fill="#96BC51" opacity="1.000000" stroke="none" 
	d="
M20.551432,9.287726 
	C20.297642,9.230737 20.043854,9.173747 19.403692,9.067465 
	C19.010656,8.262746 19.003992,7.507320 19.000500,6.374822 
	C19.447474,5.998420 19.891275,5.999092 20.668091,5.999203 
	C21.443550,6.000739 21.885992,6.002836 22.663071,6.418372 
	C23.012087,7.654944 23.026466,8.478078 22.725950,9.339621 
	C21.791180,9.347930 21.171307,9.317828 20.551432,9.287726 
z"/>
<path fill="#7DBE65" opacity="1.000000" stroke="none" 
	d="
M16.615507,9.009852 
	C17.010391,9.764992 17.003428,10.507998 16.691113,11.494035 
	C15.568311,11.477139 14.750861,11.217214 13.839652,10.756753 
	C13.565626,10.305892 13.326327,10.141408 13.027993,10.062766 
	C13.021973,9.883258 13.015953,9.703750 13.009639,9.254467 
	C14.077451,8.989035 15.145555,8.993377 16.615507,9.009852 
z"/>
<path fill="#41AB91" opacity="1.000000" stroke="none" 
	d="
M8.991345,17.992437 
	C8.991345,17.992437 8.999079,17.497797 9.333647,17.249172 
	C10.111199,16.986134 10.554182,16.971720 11.330912,16.967323 
	C12.109776,16.980341 12.554893,16.983341 13.002448,16.993313 
	C13.004885,17.000284 13.019409,17.002043 13.012597,17.295734 
	C13.019297,17.980835 13.032807,18.372244 12.713363,18.870443 
	C12.159558,19.051834 11.938710,19.126434 11.393519,19.263241 
	C10.410755,19.350893 9.752335,19.376335 9.076801,19.048820 
	C9.036908,18.461388 9.014127,18.226913 8.991345,17.992437 
z"/>
<path fill="#55B3AB" opacity="1.000000" stroke="none" 
	d="
M8.607735,17.993847 
	C9.014127,18.226913 9.036908,18.461388 9.005806,19.235096 
	C8.767029,19.971485 8.560225,20.142088 8.331512,20.286137 
	C7.573329,19.768953 6.815145,19.251770 5.985178,18.375286 
	C6.683638,18.009077 7.453881,18.002169 8.607735,17.993847 
z"/>
<path fill="#55B3AB" opacity="1.000000" stroke="none" 
	d="
M10.997166,16.957306 
	C10.554182,16.971720 10.111199,16.986134 9.335747,17.001831 
	C9.002426,16.558363 9.001574,16.113609 9.001020,15.335358 
	C9.001320,15.001861 9.500463,15.000539 9.990799,15.164436 
	C10.653146,15.871325 10.825155,16.414316 10.997166,16.957306 
z"/>
<path fill="#EBFDFF" opacity="1.000000" stroke="none" 
	d="
M9.964369,31.708395 
	C8.817000,30.990643 7.669633,30.272890 6.259234,29.442974 
	C5.698616,27.802050 5.401029,26.273287 5.097561,24.349844 
	C5.172520,23.612406 5.253361,23.269650 5.582619,22.544632 
	C6.293081,21.789045 6.755127,21.415718 7.217174,21.042393 
	C7.409832,21.089235 7.602490,21.136076 8.284572,21.442970 
	C9.564844,22.486635 10.355693,23.270247 11.160515,24.423164 
	C11.917245,25.493507 12.660003,26.194542 13.587425,27.115971 
	C14.581095,27.857334 15.390099,28.378307 16.199102,28.899281 
	C14.930946,29.675127 13.662791,30.450975 11.874437,31.470974 
	C10.890950,31.712881 10.427659,31.710638 9.964369,31.708395 
z"/>
<path fill="#E4FEFF" opacity="1.000000" stroke="none" 
	d="
M11.146542,24.053858 
	C10.355693,23.270247 9.564844,22.486635 8.579302,21.482780 
	C8.384609,21.262535 8.318517,20.774897 8.325014,20.530518 
	C8.560225,20.142088 8.767029,19.971485 9.022918,19.588051 
	C9.752335,19.376335 10.410755,19.350893 11.633924,19.464241 
	C12.794119,19.791349 13.389564,19.979666 13.985387,20.517799 
	C13.986676,21.570101 13.987589,22.272587 13.982992,23.203136 
	C13.977482,23.431200 14.013136,23.886068 13.656257,23.926918 
	C12.581766,23.996466 11.864154,24.025162 11.146542,24.053858 
z"/>
<path fill="#5BA2BD" opacity="1.000000" stroke="none" 
	d="
M6.903368,21.030857 
	C6.755127,21.415718 6.293081,21.789045 5.555129,22.280266 
	C4.998786,21.904234 4.718349,21.410309 4.437911,20.916384 
	C5.155128,20.950697 5.872346,20.985010 6.903368,21.030857 
z"/>
<path fill="#60BF90" opacity="1.000000" stroke="none" 
	d="
M11.330912,16.967323 
	C10.825155,16.414316 10.653146,15.871325 10.240368,15.163137 
	C10.000216,14.556041 10.000833,14.114140 10.000986,13.341000 
	C10.552660,12.843252 11.104796,12.676744 11.826292,12.270863 
	C11.995649,12.031489 12.488971,12.029108 12.738928,12.278217 
	C12.988886,12.527328 13.002775,13.024457 13.002781,13.420030 
	C13.001861,14.872516 13.000936,15.929430 13.000011,16.986343 
	C12.554893,16.983341 12.109776,16.980341 11.330912,16.967323 
z"/>
<path fill="#75C171" opacity="1.000000" stroke="none" 
	d="
M13.002775,13.024457 
	C13.002775,13.024457 12.988886,12.527328 12.985591,12.279051 
	C12.989378,11.847674 12.996460,11.664575 13.239777,11.218222 
	C13.476011,10.954969 13.933413,10.957288 13.933413,10.957288 
	C14.750861,11.217214 15.568311,11.477139 16.684353,11.866171 
	C16.986336,12.164279 16.989723,12.333282 16.596031,12.755726 
	C15.133557,13.014264 14.068166,13.019361 13.002775,13.024457 
z"/>
<path fill="#9CC570" opacity="1.000000" stroke="none" 
	d="
M13.839652,10.756753 
	C13.933413,10.957288 13.476011,10.954969 13.247801,10.943485 
	C13.019591,10.932001 13.023754,10.496536 13.025873,10.279652 
	C13.326327,10.141408 13.565626,10.305892 13.839652,10.756753 
z"/>
<path fill="#E83926" opacity="1.000000" stroke="none" 
	d="
M43.005077,41.000233 
	C43.004391,41.748814 43.003704,42.497398 42.735577,43.849789 
	C42.309269,45.633205 42.150398,46.812809 41.991531,47.992416 
	C41.548645,47.994644 41.105759,47.996876 40.176231,47.755444 
	C39.126030,47.007195 38.562469,46.502605 38.139687,45.675217 
	C38.854435,43.568340 39.428406,41.784264 40.334740,40.000431 
	C41.110214,40.001583 41.553326,40.002487 42.105957,40.222656 
	C42.417091,40.715118 42.680290,40.901218 43.005077,41.000233 
z"/>
<path fill="#E23A32" opacity="1.000000" stroke="none" 
	d="
M37.998909,45.998016 
	C38.562469,46.502605 39.126030,47.007195 39.843807,47.755173 
	C39.512264,48.585720 39.026505,49.172882 38.128315,49.656647 
	C37.143616,49.702015 36.571350,49.850777 35.665901,49.999149 
	C34.888462,49.999046 34.444206,49.999336 33.999969,49.749878 
	C33.999985,49.500130 34.000000,49.000263 34.262688,48.794651 
	C34.686703,47.725517 34.848034,46.861996 35.382954,45.998306 
	C36.504002,45.998100 37.251453,45.998058 37.998909,45.998016 
z"/>
<path fill="#EC442C" opacity="1.000000" stroke="none" 
	d="
M42.362926,47.993477 
	C42.150398,46.812809 42.309269,45.633205 42.744217,44.223915 
	C43.674458,45.057217 44.328613,46.120197 44.969353,47.548222 
	C44.215401,47.940353 43.474861,47.967445 42.362926,47.993477 
z"/>
<path fill="#CB483D" opacity="1.000000" stroke="none" 
	d="
M37.928150,52.990692 
	C37.892097,53.387974 37.807575,53.399715 37.769356,53.410316 
	C37.443974,53.330944 37.156818,53.240971 36.427135,53.060753 
	C35.984612,52.970505 35.987499,52.486370 35.992985,51.995438 
	C35.998470,51.504501 36.004429,51.006737 36.337929,51.006485 
	C37.116165,51.004826 37.560905,51.003418 38.005646,51.002010 
	C37.991829,51.532478 37.978016,52.062943 37.928150,52.990692 
z"/>
<path fill="#D73C2E" opacity="1.000000" stroke="none" 
	d="
M38.007114,50.752594 
	C37.560905,51.003418 37.116165,51.004826 36.336288,50.754646 
	C36.000462,50.335220 35.999775,50.167381 35.999084,49.999542 
	C36.571350,49.850777 37.143616,49.702015 37.863815,49.778797 
	C38.011753,50.004345 38.008583,50.503178 38.007114,50.752594 
z"/>
<path fill="#EC442C" opacity="1.000000" stroke="none" 
	d="
M43.324760,40.861542 
	C42.680290,40.901218 42.417091,40.715118 42.110157,39.794376 
	C42.114258,38.301815 42.223679,37.456802 42.701805,36.521896 
	C43.271069,36.277756 43.471615,36.123505 43.910862,36.207798 
	C45.397060,37.417217 46.644566,38.388092 47.821251,39.519867 
	C47.750435,39.680759 47.594913,39.996071 47.444710,39.995541 
	C47.294506,39.995010 46.994766,40.014973 46.994766,40.014973 
	C45.877991,40.250931 44.761219,40.486893 43.324760,40.861542 
z"/>
<path fill="#D74C32" opacity="1.000000" stroke="none" 
	d="
M46.995270,40.345863 
	C46.994766,40.014973 47.294506,39.995010 47.771786,40.056404 
	C48.459595,40.177864 48.670128,40.237930 48.880661,40.297993 
	C48.918591,40.674545 48.956520,41.051102 48.995377,41.712505 
	C48.552982,41.998352 48.109669,41.999348 47.333862,42.001270 
	C46.999508,41.560383 46.997643,41.118568 46.995270,40.345863 
z"/>
<path fill="#FFF8E2" opacity="1.000000" stroke="none" 
	d="
M47.892067,39.358971 
	C46.644566,38.388092 45.397060,37.417217 43.865410,36.100826 
	C43.581257,35.755314 43.366982,35.649429 43.355354,35.629662 
	C43.343727,35.609890 43.379890,35.605289 43.291222,35.172665 
	C43.097267,34.465092 42.991985,34.190147 42.984158,33.630848 
	C42.859379,32.826069 42.637154,32.305653 42.383549,31.776949 
	C42.352169,31.768665 42.354561,31.703800 42.441307,31.477371 
	C42.528057,31.250940 42.394680,30.784689 42.582531,30.492273 
	C42.803795,28.572395 42.837208,26.944931 42.914639,24.931776 
	C42.973663,24.029984 42.988674,23.513885 43.391037,23.045349 
	C45.038895,23.943539 46.299393,24.794167 47.756649,25.850962 
	C48.101227,27.042986 48.249043,28.028841 48.312695,29.366299 
	C48.483494,30.813465 48.738461,31.909029 49.072266,33.252365 
	C49.451927,33.632915 49.752754,33.765697 50.053577,33.898476 
	C50.472328,34.247719 50.891079,34.596962 51.572010,35.039467 
	C51.854683,35.561386 51.875172,35.990047 52.012802,36.721909 
	C52.073463,37.473061 52.016979,37.921013 51.996803,38.706367 
	C51.542896,39.129936 51.052677,39.216099 49.920616,39.271614 
	C48.816536,39.280308 48.354301,39.319637 47.892067,39.358971 
z"/>
<path fill="#C9785F" opacity="1.000000" stroke="none" 
	d="
M47.821251,39.519863 
	C48.354301,39.319637 48.816536,39.280308 49.580086,39.427147 
	C49.695290,39.811600 49.479042,39.968346 49.056656,40.190773 
	C48.670128,40.237930 48.459595,40.177864 47.921989,40.056938 
	C47.594913,39.996071 47.750435,39.680759 47.821251,39.519863 
z"/>
<path fill="#DDD63B" opacity="1.000000" stroke="none" 
	d="
M36.000668,5.962580 
	C36.796978,5.752989 37.593285,5.543398 38.694511,5.269839 
	C39.127415,5.473160 39.312454,5.692285 39.742672,5.974091 
	C39.957561,8.472344 39.984333,10.859755 39.756096,13.621070 
	C39.501091,13.994976 39.001125,13.993429 38.947701,13.649476 
	C37.930180,12.870965 36.966080,12.436407 35.752476,11.999069 
	C35.502968,11.996290 35.003941,11.992535 35.002213,11.578840 
	C34.989979,9.786254 34.979469,8.407364 35.196152,6.909873 
	C35.615784,6.515042 35.808228,6.238811 36.000668,5.962580 
z"/>
<path fill="#FBFAB6" opacity="1.000000" stroke="none" 
	d="
M48.176567,16.646198 
	C48.184147,17.450880 48.109344,17.886555 47.654907,18.631657 
	C45.952923,18.659834 44.630577,18.378584 43.187576,17.790339 
	C42.991734,17.277576 42.916538,17.071808 42.869408,16.506775 
	C42.909012,15.427331 42.920547,14.707152 42.932083,13.986973 
	C43.107883,13.983994 43.283680,13.981015 43.713028,13.904639 
	C45.027214,13.893949 46.087849,13.956656 47.544598,14.019064 
	C47.991871,14.771572 48.043030,15.524381 48.176567,16.646198 
z"/>
<path fill="#DAC035" opacity="1.000000" stroke="none" 
	d="
M42.566669,14.002829 
	C42.920547,14.707152 42.909012,15.427331 42.646606,16.536436 
	C42.395733,16.925362 41.948818,16.992348 41.714268,17.161503 
	C41.270660,17.864080 41.061604,18.397501 40.489174,18.958160 
	C39.397171,18.989248 38.668533,18.993099 37.951180,18.755474 
	C37.962463,18.513998 37.960197,18.030521 38.002213,17.682650 
	C38.363194,16.220995 38.682159,15.107212 39.001125,13.993429 
	C39.001125,13.993429 39.501091,13.994976 39.751083,13.994361 
	C40.734470,14.002059 41.467861,14.010372 42.566669,14.002829 
z"/>
<path fill="#FEFDEA" opacity="1.000000" stroke="none" 
	d="
M43.308228,18.097334 
	C44.630577,18.378584 45.952923,18.659834 47.616447,18.961617 
	C47.957623,18.982147 48.406910,19.042618 48.630600,19.073668 
	C48.854294,19.104717 48.863010,19.586082 48.860168,19.827560 
	C48.858707,21.380442 48.860085,22.691849 48.703697,24.520920 
	C48.217251,25.240658 47.888569,25.442726 47.559887,25.644794 
	C46.299393,24.794167 45.038895,23.943539 43.386787,22.723461 
	C42.739410,21.578846 42.483635,20.803680 42.203762,19.802345 
	C42.179661,19.576178 42.157990,19.122751 42.355186,18.983044 
	C42.789280,18.604040 42.923801,18.316797 43.031105,18.049873 
	C43.106251,18.118135 43.308228,18.097334 43.308228,18.097334 
z"/>
<path fill="#E39041" opacity="1.000000" stroke="none" 
	d="
M47.756649,25.850964 
	C47.888569,25.442726 48.217251,25.240658 48.759048,24.835819 
	C49.406067,24.696474 49.839970,24.759899 50.603897,24.849981 
	C50.954006,25.348972 50.974094,25.821302 51.002834,26.647362 
	C51.009525,27.438763 51.007561,27.876438 51.007507,28.641788 
	C50.839722,28.975140 50.670021,28.980814 49.979980,28.996220 
	C49.105373,29.008869 48.751118,29.011784 48.396858,29.014698 
	C48.249043,28.028841 48.101227,27.042986 47.756649,25.850964 
z"/>
<path fill="#D4803C" opacity="1.000000" stroke="none" 
	d="
M48.312695,29.366299 
	C48.751118,29.011784 49.105373,29.008869 49.725395,29.003664 
	C49.917461,30.137716 49.843761,31.274057 49.637009,32.700596 
	C49.333775,32.995392 49.163597,32.999992 48.993423,33.004593 
	C48.738461,31.909029 48.483494,30.813465 48.312695,29.366299 
z"/>
<path fill="#D79457" opacity="1.000000" stroke="none" 
	d="
M49.072266,33.252365 
	C49.163597,32.999992 49.333775,32.995392 49.759422,32.982567 
	C50.014889,32.974346 50.043919,33.436268 50.048748,33.667374 
	C49.752754,33.765697 49.451927,33.632915 49.072266,33.252365 
z"/>
<path fill="#BDCA3B" opacity="1.000000" stroke="none" 
	d="
M34.968964,7.028473 
	C34.979469,8.407364 34.989979,9.786254 34.702911,11.601743 
	C33.934059,12.360450 33.462784,12.682559 32.712029,12.872290 
	C31.618317,11.828800 30.804083,10.917690 29.993843,10.004002 
	C29.997833,10.001425 30.004412,9.997622 30.004412,9.997622 
	C31.107885,9.034373 32.211357,8.071124 33.896988,7.061701 
	C34.479149,7.015527 34.968964,7.028473 34.968964,7.028473 
z"/>
<path fill="#B6C93F" opacity="1.000000" stroke="none" 
	d="
M27.015532,9.992337 
	C27.011158,8.604753 27.006783,7.217170 27.005440,5.413210 
	C28.003923,6.428528 28.999376,7.860223 29.999620,9.644770 
	C30.004412,9.997622 29.997833,10.001425 29.622078,10.002014 
	C28.502724,9.999182 27.759129,9.995760 27.015532,9.992337 
z"/>
<path fill="#DBD950" opacity="1.000000" stroke="none" 
	d="
M35.196152,6.909873 
	C34.968964,7.028473 34.479149,7.015527 34.234089,7.010039 
	C33.990917,6.560811 33.992809,6.117070 33.995968,5.340728 
	C34.551254,5.166913 35.105278,5.325700 35.829983,5.723534 
	C35.808228,6.238811 35.615784,6.515042 35.196152,6.909873 
z"/>
<path fill="#A5C054" opacity="1.000000" stroke="none" 
	d="
M23.040848,9.301212 
	C23.026466,8.478078 23.012087,7.654944 22.994928,6.420984 
	C23.437662,6.006427 23.883175,6.002697 24.662481,5.998095 
	C24.960138,6.914155 24.924000,7.831089 24.514160,9.127464 
	C23.773920,9.438341 23.407385,9.369777 23.040848,9.301212 
z"/>
<path fill="#A9C13C" opacity="1.000000" stroke="none" 
	d="
M26.752533,10.210794 
	C27.759129,9.995760 28.502724,9.999182 29.618086,10.004591 
	C30.804083,10.917690 31.618317,11.828800 32.713276,13.120459 
	C32.994003,13.501008 32.995663,13.997452 32.752159,14.164982 
	C32.338795,14.885323 32.168938,15.438132 31.735577,15.996496 
	C31.296524,16.009518 31.120975,16.016987 30.648930,15.886574 
	C28.902861,14.863338 27.453285,13.977983 26.003712,13.092630 
	C26.165651,12.204838 26.327593,11.317045 26.752533,10.210794 
z"/>
<path fill="#FEFEE0" opacity="1.000000" stroke="none" 
	d="
M22.725952,9.339622 
	C23.407385,9.369777 23.773920,9.438341 24.410175,9.574780 
	C24.828705,10.572337 24.977518,11.502019 25.085396,12.757591 
	C25.044458,13.083481 24.710815,12.907562 24.367649,12.952406 
	C23.016651,14.597733 22.008823,16.198217 20.883953,17.843712 
	C20.766911,17.888721 20.539440,17.994347 20.356522,17.747749 
	C20.059113,17.331476 19.944622,17.161802 19.924887,16.753963 
	C19.948973,16.360214 19.878305,16.204632 19.863791,15.782329 
	C19.851852,15.347136 19.783760,15.178666 19.715666,15.010195 
	C19.928110,13.365888 20.140554,11.721581 20.452213,9.682500 
	C21.171307,9.317828 21.791180,9.347930 22.725952,9.339622 
z"/>
<path fill="#7BAA45" opacity="1.000000" stroke="none" 
	d="
M25.858730,13.098520 
	C27.453285,13.977983 28.902861,14.863338 30.690168,16.215591 
	C31.297426,17.521244 31.566950,18.359995 31.529749,19.285427 
	C30.174107,19.614315 29.125191,19.856520 27.819427,20.033348 
	C27.385889,19.967863 27.209200,19.967756 27.005787,19.801098 
	C26.979063,19.634548 26.940989,19.299345 26.964592,18.936832 
	C26.693302,17.702694 26.398409,16.831066 26.026581,15.789439 
	C25.839693,15.390844 25.679003,15.206500 25.328819,14.710411 
	C25.030315,13.872130 24.870565,13.389846 24.710815,12.907562 
	C24.710815,12.907562 25.044458,13.083481 25.234192,13.086509 
	C25.423927,13.089537 25.713749,13.104411 25.858730,13.098520 
z"/>
<path fill="#C22B31" opacity="1.000000" stroke="none" 
	d="
M32.010143,46.998627 
	C31.744198,46.506493 31.478252,46.014359 31.106426,44.887779 
	C31.002205,43.504070 31.003864,42.754803 31.336824,42.003464 
	C32.109791,42.000679 32.551453,41.999969 33.253063,42.004677 
	C33.686226,42.016514 33.859440,42.022938 34.025677,42.425507 
	C34.016209,43.877605 34.013710,44.933552 33.842773,46.234558 
	C33.119606,46.652615 32.564873,46.825619 32.010143,46.998627 
z"/>
<path fill="#B42F4E" opacity="1.000000" stroke="none" 
	d="
M26.031172,47.966331 
	C26.021624,47.530376 26.012075,47.094425 26.004189,46.081383 
	C26.005848,45.504288 26.004990,45.004898 26.337963,45.003551 
	C27.115019,45.001331 27.559101,45.000462 28.335901,44.999580 
	C29.113028,45.000572 29.557436,45.001572 30.001844,45.002571 
	C30.000984,45.751827 30.000122,46.501083 29.739086,47.630234 
	C29.308060,48.015251 29.137211,48.020378 28.599482,48.018890 
	C27.498791,47.996956 26.764982,47.981644 26.031172,47.966331 
z"/>
<path fill="#B42E3F" opacity="1.000000" stroke="none" 
	d="
M30.251133,45.002296 
	C29.557436,45.001572 29.113028,45.000572 28.335213,44.666245 
	C28.001692,43.888744 28.001575,43.444569 28.008049,42.760338 
	C28.014639,42.520279 28.080124,42.044460 28.443825,42.033577 
	C29.537588,42.013996 30.267654,42.005302 30.998877,41.998318 
	C31.000034,42.000031 31.005524,42.005539 31.005524,42.005539 
	C31.003864,42.754803 31.002205,43.504070 30.999767,44.628624 
	C30.998991,45.003914 30.500420,45.002022 30.251133,45.002296 
z"/>
<path fill="#C33951" opacity="1.000000" stroke="none" 
	d="
M28.966362,48.025509 
	C29.137211,48.020378 29.308060,48.015251 29.735140,48.004860 
	C30.171444,49.190998 30.351517,50.382401 30.273397,51.785782 
	C29.688036,51.898281 29.423601,51.710480 29.109838,50.843040 
	C28.987303,49.509651 28.976831,48.767582 28.966362,48.025509 
z"/>
<path fill="#D93E3F" opacity="1.000000" stroke="none" 
	d="
M35.665901,49.999153 
	C35.999775,50.167381 36.000462,50.335220 36.002792,50.754898 
	C36.004429,51.006737 35.998470,51.504501 35.992676,51.753365 
	C35.026402,51.563892 34.065926,51.125557 33.302715,50.343529 
	C33.499977,49.999840 33.999950,49.999622 33.999950,49.999622 
	C34.444206,49.999336 34.888462,49.999046 35.665901,49.999153 
z"/>
<path fill="#D22E31" opacity="1.000000" stroke="none" 
	d="
M32.115311,47.257957 
	C32.564873,46.825619 33.119606,46.652615 34.092239,46.236885 
	C34.510147,45.994156 35.009361,45.998474 35.009361,45.998474 
	C34.848034,46.861996 34.686703,47.725517 34.012810,48.794544 
	C33.500248,49.000050 33.000496,49.000076 33.000496,49.000076 
	C32.740490,48.505814 32.480484,48.011547 32.115311,47.257957 
z"/>
<path fill="#D73C2E" opacity="1.000000" stroke="none" 
	d="
M33.000332,49.249969 
	C33.000496,49.000076 33.500248,49.000050 33.750122,49.000156 
	C34.000000,49.000263 33.999985,49.500130 33.999969,49.749878 
	C33.999950,49.999622 33.499977,49.999840 33.250118,49.999744 
	C33.000259,49.999649 33.000168,49.499863 33.000332,49.249969 
z"/>
<path fill="#91317B" opacity="1.000000" stroke="none" 
	d="
M22.255535,48.992863 
	C22.002752,47.921452 22.002605,46.854912 22.216064,45.278313 
	C22.697714,44.570518 22.884773,44.313770 23.241222,44.002277 
	C23.658430,44.009224 23.825270,44.011909 23.993435,44.388817 
	C24.000113,45.511803 24.005465,46.260555 24.010817,47.009312 
	C23.839865,47.562180 23.668915,48.115044 23.255720,48.836945 
	C22.845041,49.003227 22.676607,49.000481 22.255535,48.992863 
z"/>
<path fill="#B23864" opacity="1.000000" stroke="none" 
	d="
M28.599482,48.018890 
	C28.976831,48.767582 28.987303,49.509651 28.998320,50.623058 
	C28.555174,50.996449 28.111479,50.998508 27.335045,51.001404 
	C26.672356,50.218521 26.342407,49.434807 26.021816,48.308708 
	C26.764982,47.981644 27.498791,47.996956 28.599482,48.018890 
z"/>
<path fill="#942E61" opacity="1.000000" stroke="none" 
	d="
M24.270685,46.905876 
	C24.005465,46.260555 24.000113,45.511803 24.252869,44.276909 
	C25.006538,43.522980 25.502100,43.255184 25.998837,42.993229 
	C26.000013,42.999065 26.002455,42.999966 26.001408,43.334137 
	C26.001905,44.113834 26.003448,44.559368 26.004990,45.004898 
	C26.004990,45.004898 26.005848,45.504288 26.002346,45.754013 
	C25.509415,46.269974 25.019983,46.536205 24.270685,46.905876 
z"/>
<path fill="#3D2C5A" opacity="1.000000" stroke="none" 
	d="
M21.027100,38.960194 
	C20.093506,38.327713 19.159912,37.695232 17.897644,36.951527 
	C17.772003,36.108868 17.975039,35.377430 18.467934,34.332230 
	C18.757797,34.018463 18.889339,33.932426 19.237648,33.968170 
	C20.049419,34.005672 20.512882,34.007427 21.197063,34.256569 
	C22.743393,35.917797 24.069004,37.331646 24.958374,38.786896 
	C23.357122,38.872269 22.192112,38.916233 21.027100,38.960194 
z"/>
<path fill="#1A4A51" opacity="1.000000" stroke="none" 
	d="
M16.407806,28.858143 
	C15.390099,28.378307 14.581095,27.857334 13.809098,26.973885 
	C14.080751,26.139385 14.315395,25.667364 14.592317,25.183182 
	C14.634593,25.171022 14.717498,25.119638 15.088523,25.053349 
	C15.961856,24.983664 16.464165,24.980268 17.061974,25.246826 
	C17.450558,26.006708 17.743643,26.496635 17.936857,27.232752 
	C17.571587,27.935410 17.306187,28.391880 17.040787,28.848351 
	C17.040787,28.848351 16.616508,28.817003 16.407806,28.858143 
z"/>
<path fill="#334D61" opacity="1.000000" stroke="none" 
	d="
M17.103027,29.197506 
	C17.306187,28.391880 17.571587,27.935410 18.171288,27.330685 
	C18.941212,27.441423 19.376837,27.700415 19.976465,28.303036 
	C20.114717,29.397741 20.088964,30.148819 19.912729,31.142639 
	C19.467205,31.623178 19.172165,31.860975 18.762112,32.071392 
	C18.647102,32.044014 18.411215,32.027748 18.411215,32.027748 
	C17.995899,31.200720 17.580584,30.373692 17.103027,29.197506 
z"/>
<path fill="#32537C" opacity="1.000000" stroke="none" 
	d="
M9.929931,32.089687 
	C10.427659,31.710638 10.890950,31.712881 11.703211,31.739487 
	C14.228162,35.284813 11.584416,34.969967 9.042156,35.062981 
	C8.647452,35.075935 8.658436,34.602329 8.591747,34.375084 
	C8.981871,33.588882 9.438682,33.029934 9.929931,32.089687 
z"/>
<path fill="#4C2F7A" opacity="1.000000" stroke="none" 
	d="
M18.299515,32.361847 
	C18.411215,32.027748 18.647102,32.044014 18.788019,32.376778 
	C18.915737,33.117168 18.902538,33.524799 18.889339,33.932426 
	C18.889339,33.932426 18.757797,34.018463 18.679518,34.015461 
	C18.463428,33.573620 18.325621,33.134785 18.299515,32.361847 
z"/>
<path fill="#6E368C" opacity="1.000000" stroke="none" 
	d="
M21.016010,44.966667 
	C19.581841,45.645802 18.147671,46.324936 16.361244,47.006119 
	C16.640940,45.891933 17.272888,44.775696 18.327648,43.330116 
	C19.501205,42.999191 20.251951,42.997616 21.008003,42.991947 
	C21.013311,42.987854 21.028008,42.983727 21.019222,43.314461 
	C21.012295,44.085682 21.014153,44.526176 21.016010,44.966667 
z"/>
<path fill="#64348D" opacity="1.000000" stroke="none" 
	d="
M21.002697,42.996040 
	C20.251951,42.997616 19.501205,42.999191 18.375076,43.001068 
	C17.998009,42.560883 17.996323,42.120388 17.995144,41.349930 
	C18.771217,40.677071 19.546783,40.334183 20.665974,40.364731 
	C21.007298,41.490791 21.004997,42.243416 21.002697,42.996040 
z"/>
<path fill="#6D2D68" opacity="1.000000" stroke="none" 
	d="
M21.008003,42.991947 
	C21.004997,42.243416 21.007298,41.490791 21.006062,40.361362 
	C21.005871,39.813972 21.009216,39.643387 21.019829,39.216499 
	C22.192112,38.916233 23.357122,38.872269 25.154240,38.752846 
	C25.786343,38.677391 25.998022,39.012531 26.001335,39.382957 
	C25.983364,40.493225 25.962078,41.233063 25.608181,41.980091 
	C24.510265,42.325768 23.744959,42.664253 22.654181,43.000908 
	C21.895142,42.993961 21.461575,42.988846 21.028008,42.983727 
	C21.028008,42.983727 21.013311,42.987854 21.008003,42.991947 
z"/>
<path fill="#683079" opacity="1.000000" stroke="none" 
	d="
M21.019222,43.314461 
	C21.461575,42.988846 21.895142,42.993961 22.658348,43.249702 
	C22.987988,43.500328 22.990852,43.998013 22.990852,43.998013 
	C22.884773,44.313770 22.697714,44.570518 22.214973,44.878113 
	C22.000277,44.987972 21.507889,44.980904 21.261950,44.973785 
	C21.014153,44.526176 21.012295,44.085682 21.019222,43.314461 
z"/>
<path fill="#53B96C" opacity="1.000000" stroke="none" 
	d="
M13.002781,13.420030 
	C14.068166,13.019361 15.133557,13.014264 16.598186,13.009270 
	C16.999468,13.448922 17.001513,13.888473 17.001205,14.990839 
	C16.993851,16.097342 16.988850,16.541031 16.587460,16.990168 
	C15.133850,16.997759 14.076630,16.999901 13.019409,17.002043 
	C13.019409,17.002043 13.004885,17.000284 13.002447,16.993313 
	C13.000936,15.929430 13.001861,14.872516 13.002781,13.420030 
z"/>
<path fill="#53A760" opacity="1.000000" stroke="none" 
	d="
M16.983849,16.984718 
	C16.988850,16.541031 16.993851,16.097342 17.005295,15.320659 
	C17.689148,14.998302 18.366558,15.008942 19.379818,15.014888 
	C19.783760,15.178666 19.851852,15.347136 19.670193,15.888684 
	C19.200130,16.470387 19.040304,16.718061 18.617699,17.005470 
	C17.863449,17.007376 17.432465,17.008598 16.999928,17.004078 
	C16.998379,16.998339 16.983847,16.984718 16.983849,16.984718 
z"/>
<path fill="#40A974" opacity="1.000000" stroke="none" 
	d="
M13.012597,17.295734 
	C14.076630,16.999901 15.133850,16.997759 16.587460,16.990168 
	C16.983847,16.984718 16.998379,16.998339 16.994938,17.403042 
	C16.924337,18.604334 16.857176,19.400927 16.570974,20.178032 
	C16.351936,20.158545 15.982483,19.919939 15.887297,19.707943 
	C15.592303,19.238907 15.332466,19.079948 14.683342,18.988201 
	C13.918163,18.892769 13.482241,18.828211 13.046318,18.763653 
	C13.032807,18.372244 13.019297,17.980835 13.012597,17.295734 
z"/>
<path fill="#55B3AB" opacity="1.000000" stroke="none" 
	d="
M12.713363,18.870443 
	C13.482241,18.828211 13.918163,18.892769 14.682285,19.165892 
	C15.010484,19.374456 14.992007,19.729986 14.737482,19.833105 
	C14.316976,20.013477 14.150992,20.090729 13.985009,20.167982 
	C13.389564,19.979666 12.794119,19.791349 11.958267,19.402033 
	C11.938710,19.126434 12.159558,19.051834 12.713363,18.870443 
z"/>
<path fill="#3B7980" opacity="1.000000" stroke="none" 
	d="
M14.550041,25.195343 
	C14.315395,25.667364 14.080751,26.139385 13.624434,26.753492 
	C12.660003,26.194542 11.917245,25.493507 11.160515,24.423164 
	C11.864154,24.025162 12.581766,23.996466 13.663725,24.144955 
	C14.028072,24.322138 14.033017,24.756239 14.168419,24.858778 
	C14.303822,24.961317 14.550041,25.195343 14.550041,25.195343 
z"/>
<path fill="#D2FBF9" opacity="1.000000" stroke="none" 
	d="
M13.985387,20.517799 
	C14.150992,20.090729 14.316976,20.013477 14.973544,19.942991 
	C15.636914,19.939819 15.809699,19.929878 15.982483,19.919939 
	C15.982483,19.919939 16.351936,20.158545 16.604160,20.162239 
	C16.856382,20.165932 16.857353,20.094049 16.884125,20.456581 
	C16.926802,21.537510 16.942709,22.255907 16.587732,22.982309 
	C15.474066,22.985233 14.731283,22.980152 13.988501,22.975071 
	C13.987589,22.272587 13.986676,21.570101 13.985387,20.517799 
z"/>
<path fill="#B7F9F5" opacity="1.000000" stroke="none" 
	d="
M13.982991,23.203136 
	C14.731283,22.980152 15.474066,22.985233 16.640923,23.304913 
	C16.987669,24.047407 16.910341,24.475304 16.851418,24.948723 
	C16.869818,24.994246 16.966473,24.976873 16.966473,24.976873 
	C16.464165,24.980268 15.961856,24.983664 15.076939,24.870811 
	C14.473442,24.554518 14.253005,24.555077 14.033017,24.756239 
	C14.033017,24.756239 14.028072,24.322138 14.020604,24.104103 
	C14.013136,23.886068 13.977482,23.431200 13.982991,23.203136 
z"/>
<path fill="#E02F27" opacity="1.000000" stroke="none" 
	d="
M35.382954,45.998306 
	C35.009361,45.998474 34.510147,45.994156 34.260681,45.991829 
	C34.013710,44.933552 34.016209,43.877605 34.241158,42.310047 
	C34.734280,41.596817 34.924019,41.336254 35.329334,40.990143 
	C36.093155,40.637558 36.560482,40.311584 37.399559,39.989830 
	C38.514999,39.996098 39.258690,39.998142 40.002380,40.000183 
	C39.428406,41.784264 38.854435,43.568340 38.139687,45.675217 
	C37.251453,45.998058 36.504002,45.998100 35.382954,45.998306 
z"/>
<path fill="#E03A2D" opacity="1.000000" stroke="none" 
	d="
M40.334740,40.000431 
	C39.258690,39.998142 38.514999,39.996098 37.374519,39.547031 
	C36.915085,38.511734 36.852444,37.923462 36.864502,37.073559 
	C37.222511,36.171497 37.505817,35.531067 38.145744,34.625252 
	C38.628971,34.091919 38.755577,33.823975 38.929192,33.811844 
	C39.084213,34.203308 39.192230,34.338959 39.792435,34.625648 
	C40.961758,34.887466 41.638893,34.998249 42.411556,35.320953 
	C42.507084,35.532871 42.876389,35.815292 42.743820,36.016632 
	C42.611248,36.217976 42.333096,36.611790 42.333096,36.611790 
	C42.223679,37.456802 42.114258,38.301815 42.000641,39.575108 
	C41.553326,40.002487 41.110214,40.001583 40.334740,40.000431 
z"/>
<path fill="#C3906F" opacity="1.000000" stroke="none" 
	d="
M42.701805,36.521896 
	C42.333096,36.611790 42.611248,36.217976 42.865284,35.981613 
	C43.119320,35.745255 43.366982,35.649429 43.366982,35.649429 
	C43.366982,35.649429 43.581257,35.755314 43.626709,35.862286 
	C43.471615,36.123505 43.271069,36.277756 42.701805,36.521896 
z"/>
<path fill="#AF835B" opacity="1.000000" stroke="none" 
	d="
M42.870621,25.317469 
	C42.837208,26.944931 42.803795,28.572395 42.294327,30.638775 
	C41.552616,31.397900 41.286961,31.718109 40.769844,32.063580 
	C40.184704,32.069908 39.851025,32.050972 39.450935,31.573360 
	C39.197468,28.944420 39.010406,26.774153 39.211609,24.677639 
	C40.099037,24.599617 40.598202,24.447840 41.375359,24.494930 
	C42.059109,24.901688 42.464863,25.109577 42.870621,25.317469 
z"/>
<path fill="#FEF7D4" opacity="1.000000" stroke="none" 
	d="
M42.914639,24.931776 
	C42.464863,25.109577 42.059109,24.901688 41.314560,24.289988 
	C40.667126,23.592037 40.358482,23.297897 39.978703,22.659962 
	C40.217007,21.480520 40.526447,20.644876 41.180817,19.887653 
	C41.759785,19.986887 41.993824,20.007700 42.227863,20.028513 
	C42.483635,20.803680 42.739410,21.578846 42.999432,22.675900 
	C42.988674,23.513885 42.973663,24.029984 42.914639,24.931776 
z"/>
<path fill="#B44A36" opacity="1.000000" stroke="none" 
	d="
M39.517345,32.032036 
	C39.851025,32.050972 40.184704,32.069908 41.110703,32.010181 
	C41.920200,31.855616 42.137379,31.779709 42.354561,31.703800 
	C42.354561,31.703800 42.352169,31.768665 42.240608,32.064705 
	C42.381603,32.878895 42.634155,33.397049 42.886707,33.915207 
	C42.991985,34.190147 43.097267,34.465092 43.047447,34.998466 
	C42.700233,35.207603 42.508133,35.158318 42.316029,35.109032 
	C41.638893,34.998249 40.961758,34.887466 39.812263,34.430367 
	C39.214878,33.759964 39.089848,33.435890 39.128181,32.854778 
	C39.366814,32.409172 39.442081,32.220604 39.517345,32.032036 
z"/>
<path fill="#AF835B" opacity="1.000000" stroke="none" 
	d="
M42.984158,33.630848 
	C42.634155,33.397049 42.381603,32.878895 42.271988,32.072987 
	C42.637154,32.305653 42.859379,32.826069 42.984158,33.630848 
z"/>
<path fill="#C6A47F" opacity="1.000000" stroke="none" 
	d="
M42.411556,35.320953 
	C42.508133,35.158318 42.700233,35.207603 43.136116,35.431091 
	C43.379890,35.605289 43.343727,35.609890 43.355354,35.629662 
	C43.366982,35.649429 43.119320,35.745255 42.997856,35.780273 
	C42.876389,35.815292 42.507084,35.532871 42.411556,35.320953 
z"/>
<path fill="#B36752" opacity="1.000000" stroke="none" 
	d="
M42.441307,31.477371 
	C42.137379,31.779709 41.920200,31.855616 41.362164,31.984921 
	C41.286961,31.718109 41.552616,31.397900 42.106476,30.931190 
	C42.394680,30.784689 42.528057,31.250940 42.441307,31.477371 
z"/>
<path fill="#D0C830" opacity="1.000000" stroke="none" 
	d="
M38.947701,13.649476 
	C38.682159,15.107212 38.363194,16.220995 37.639732,17.674883 
	C36.507965,18.000471 35.780693,17.985954 35.041809,17.725052 
	C35.030201,17.478662 35.015919,16.984972 35.016533,16.612022 
	C35.015263,15.493232 35.013382,14.747392 35.254883,13.833218 
	C35.666172,13.110539 35.834076,12.556194 36.001984,12.001848 
	C36.966080,12.436407 37.930180,12.870965 38.947701,13.649476 
z"/>
<path fill="#C1C730" opacity="1.000000" stroke="none" 
	d="
M35.752476,11.999069 
	C35.834076,12.556194 35.666172,13.110539 34.918781,13.832597 
	C33.891418,13.999356 33.443542,13.998405 32.995663,13.997452 
	C32.995663,13.997452 32.994003,13.501008 32.992752,13.252838 
	C33.462784,12.682559 33.934059,12.360450 34.704639,12.015438 
	C35.003941,11.992535 35.502968,11.996290 35.752476,11.999069 
z"/>
<path fill="#E9CB85" opacity="1.000000" stroke="none" 
	d="
M41.948818,16.992348 
	C41.948818,16.992348 42.395733,16.925362 42.618538,16.895702 
	C42.916538,17.071808 42.991734,17.277576 43.187576,17.790339 
	C43.308228,18.097334 43.106251,18.118135 42.808708,17.951149 
	C42.265274,17.561739 42.077827,17.297802 41.948818,16.992348 
z"/>
<path fill="#BBA84A" opacity="1.000000" stroke="none" 
	d="
M40.835884,19.809233 
	C40.526447,20.644876 40.217007,21.480520 39.704700,22.875874 
	C39.290562,23.847664 39.079292,24.259745 38.625565,24.451939 
	C37.667877,23.771065 36.952644,23.310076 36.184834,22.563236 
	C36.045441,21.901484 35.958622,21.525579 35.989594,20.863888 
	C36.718220,20.051050 37.329060,19.524000 37.939899,18.996950 
	C38.668533,18.993099 39.397171,18.989248 40.517200,18.974821 
	C40.908596,18.964245 40.962997,18.994886 40.919750,19.196682 
	C40.876503,19.398479 40.835884,19.809233 40.835884,19.809233 
z"/>
<path fill="#B6BF2E" opacity="1.000000" stroke="none" 
	d="
M37.951180,18.755474 
	C37.329060,19.524000 36.718220,20.051050 35.697529,20.826445 
	C34.821960,20.743200 34.356243,20.411610 34.121891,19.964424 
	C34.546490,19.573715 34.739727,19.298599 34.960487,18.760178 
	C35.009819,18.321724 35.031620,18.146580 35.053417,17.971439 
	C35.780693,17.985954 36.507965,18.000471 37.597717,18.022755 
	C37.960197,18.030521 37.962463,18.513998 37.951180,18.755474 
z"/>
<path fill="#D9C049" opacity="1.000000" stroke="none" 
	d="
M41.714268,17.161503 
	C42.077827,17.297802 42.265274,17.561739 42.733559,17.882885 
	C42.923801,18.316797 42.789280,18.604040 42.058357,18.928051 
	C41.363880,19.006805 41.163441,19.000847 40.962997,18.994886 
	C40.962997,18.994886 40.908596,18.964245 40.880569,18.947582 
	C41.061604,18.397501 41.270660,17.864080 41.714268,17.161503 
z"/>
<path fill="#E9CB85" opacity="1.000000" stroke="none" 
	d="
M40.919750,19.196682 
	C41.163441,19.000847 41.363880,19.006805 41.861156,19.067757 
	C42.157990,19.122751 42.179661,19.576178 42.203762,19.802345 
	C41.993824,20.007700 41.759785,19.986887 41.180817,19.887653 
	C40.835884,19.809233 40.876503,19.398479 40.919750,19.196682 
z"/>
<path fill="#B6BF2E" opacity="1.000000" stroke="none" 
	d="
M32.752159,14.164982 
	C33.443542,13.998405 33.891418,13.999356 34.675400,14.000929 
	C35.013382,14.747392 35.015263,15.493232 34.676064,16.617195 
	C33.556343,16.660526 32.777714,16.325735 31.999081,15.990943 
	C32.168938,15.438132 32.338795,14.885323 32.752159,14.164982 
z"/>
<path fill="#A3B234" opacity="1.000000" stroke="none" 
	d="
M31.735577,15.996496 
	C32.777714,16.325735 33.556343,16.660526 34.675446,16.990145 
	C35.015919,16.984972 35.030201,17.478662 35.041809,17.725050 
	C35.031620,18.146580 35.009819,18.321724 34.694729,18.787479 
	C34.224297,19.101645 34.047150,19.125200 33.542141,19.114500 
	C32.772835,19.083767 32.331394,19.087290 31.892441,19.125654 
	C31.894930,19.160494 31.836473,19.198746 31.836473,19.198746 
	C31.566950,18.359995 31.297426,17.521244 30.986664,16.353474 
	C31.120975,16.016987 31.296524,16.009518 31.735577,15.996496 
z"/>
<path fill="#F4FFF5" opacity="1.000000" stroke="none" 
	d="
M20.539440,17.994347 
	C20.539440,17.994347 20.766911,17.888721 21.198572,17.890625 
	C22.640129,17.595110 23.650023,17.297693 24.781986,17.472092 
	C24.874893,18.591127 24.845736,19.238350 24.821518,20.102318 
	C24.550167,20.881247 24.273880,21.443426 23.783663,22.083595 
	C22.721195,22.270102 21.872656,22.378620 20.868298,22.560040 
	C20.712481,22.632940 20.400898,22.777519 20.364986,22.423431 
	C20.171062,21.382999 20.013050,20.696655 20.000950,19.685072 
	C20.277723,18.904671 20.408583,18.449509 20.539440,17.994347 
z"/>
<path fill="#F6FFEA" opacity="1.000000" stroke="none" 
	d="
M24.659918,17.000277 
	C23.650023,17.297693 22.640129,17.595110 21.315613,17.845613 
	C22.008823,16.198217 23.016651,14.597733 24.367649,12.952406 
	C24.870565,13.389846 25.030315,13.872130 25.215883,14.953368 
	C25.307125,15.718420 25.372547,15.884520 25.251221,16.294395 
	C24.929623,16.692207 24.794771,16.846241 24.659918,17.000277 
z"/>
<path fill="#419866" opacity="1.000000" stroke="none" 
	d="
M20.356522,17.747749 
	C20.408583,18.449509 20.277723,18.904671 19.627436,19.692165 
	C18.357790,20.047680 17.607571,20.070866 16.857353,20.094051 
	C16.857353,20.094049 16.856382,20.165932 16.823196,20.181725 
	C16.857176,19.400927 16.924337,18.604334 16.996489,17.408781 
	C17.432465,17.008598 17.863449,17.007376 18.840607,17.021013 
	C19.386776,17.035873 19.830132,16.992126 19.830132,16.992126 
	C19.944622,17.161802 20.059113,17.331476 20.356522,17.747749 
z"/>
<path fill="#68B15F" opacity="1.000000" stroke="none" 
	d="
M19.924887,16.753963 
	C19.830132,16.992126 19.386776,17.035873 19.163868,17.020332 
	C19.040304,16.718061 19.200130,16.470387 19.614037,16.155405 
	C19.878305,16.204632 19.948973,16.360214 19.924887,16.753963 
z"/>
<path fill="#FCFBE2" opacity="1.000000" stroke="none" 
	d="
M33.890526,20.080019 
	C34.356243,20.411610 34.821960,20.743200 35.579742,21.112232 
	C35.958622,21.525579 36.045441,21.901484 35.888786,22.755873 
	C35.060432,24.237305 34.475555,25.240250 33.589638,26.141827 
	C32.529415,25.843992 31.770235,25.647526 30.660467,25.259777 
	C29.520895,24.957857 28.731907,24.847223 27.911320,24.563147 
	C27.879719,24.389702 27.841896,24.039137 27.898003,23.680527 
	C27.980967,22.600412 28.007824,21.878908 28.052269,20.893017 
	C28.071995,20.451994 28.074135,20.275358 28.076273,20.098724 
	C29.125191,19.856520 30.174107,19.614315 31.529749,19.285427 
	C31.836473,19.198746 31.894930,19.160494 32.064014,19.368525 
	C32.794788,19.716801 33.356480,19.857046 33.914143,20.018797 
	C33.910118,20.040300 33.890526,20.080019 33.890526,20.080019 
z"/>
<path fill="#6C9855" opacity="1.000000" stroke="none" 
	d="
M24.781986,17.472092 
	C24.794771,16.846241 24.929623,16.692207 25.418924,16.284782 
	C25.773376,16.031393 26.103516,15.959437 26.103516,15.959437 
	C26.398409,16.831066 26.693302,17.702694 26.648048,19.082947 
	C26.121553,19.732040 25.935209,19.872505 25.529819,19.856480 
	C25.146044,19.761847 24.981310,19.823709 24.816578,19.885571 
	C24.845736,19.238350 24.874893,18.591127 24.781986,17.472092 
z"/>
<path fill="#BBC782" opacity="1.000000" stroke="none" 
	d="
M25.748865,20.012972 
	C25.935209,19.872505 26.121553,19.732040 26.624443,19.445459 
	C26.940989,19.299345 26.979063,19.634548 26.874491,19.948448 
	C26.769918,20.262350 26.509451,20.557085 26.364315,20.489964 
	C26.028202,20.325424 25.871431,20.188801 25.748865,20.012972 
z"/>
<path fill="#BBC782" opacity="1.000000" stroke="none" 
	d="
M27.819427,20.033348 
	C28.074135,20.275358 28.071995,20.451994 27.796768,20.796555 
	C27.185604,20.828682 26.847528,20.692884 26.509451,20.557085 
	C26.509451,20.557085 26.769918,20.262350 26.901215,20.114998 
	C27.209200,19.967756 27.385889,19.967863 27.819427,20.033348 
z"/>
<path fill="#82A95B" opacity="1.000000" stroke="none" 
	d="
M26.026581,15.789439 
	C26.103516,15.959437 25.773376,16.031393 25.605673,16.041006 
	C25.372547,15.884520 25.307125,15.718420 25.354639,15.309364 
	C25.679003,15.206500 25.839693,15.390844 26.026581,15.789439 
z"/>
<path fill="#BA2825" opacity="1.000000" stroke="none" 
	d="
M35.032837,41.016754 
	C34.924019,41.336254 34.734280,41.596817 34.248131,41.913898 
	C33.859440,42.022938 33.686226,42.016514 33.251472,41.754223 
	C32.979824,41.331657 32.969715,41.164963 33.001823,40.766869 
	C33.044041,40.535465 33.138836,40.074867 33.420845,40.075344 
	C34.146179,40.389465 34.589508,40.703110 35.032837,41.016754 
z"/>
<path fill="#B42E3F" opacity="1.000000" stroke="none" 
	d="
M32.959602,40.998268 
	C32.969715,41.164963 32.979824,41.331657 32.991528,41.748810 
	C32.551453,41.999969 32.109791,42.000679 31.336824,42.003464 
	C31.005524,42.005539 31.000034,42.000031 31.164854,41.757893 
	C31.872984,41.343258 32.416294,41.170765 32.959602,40.998268 
z"/>
<path fill="#A02F54" opacity="1.000000" stroke="none" 
	d="
M26.337963,45.003551 
	C26.003448,44.559368 26.001905,44.113834 26.334541,43.333698 
	C27.112968,42.999527 27.557213,42.999962 28.001459,43.000397 
	C28.001575,43.444569 28.001692,43.888744 28.002495,44.666252 
	C27.559101,45.000462 27.115019,45.001331 26.337963,45.003551 
z"/>
<path fill="#882346" opacity="1.000000" stroke="none" 
	d="
M28.008049,42.760338 
	C27.557213,42.999962 27.112968,42.999527 26.335588,42.999527 
	C26.002455,42.999966 26.000013,42.999065 25.992218,42.739258 
	C25.969879,42.310604 25.955338,42.141754 25.940794,41.972900 
	C25.962078,41.233063 25.983364,40.493225 26.387238,39.383957 
	C27.487041,39.276283 28.204258,39.538036 28.886688,39.787659 
	C28.851902,39.775532 28.817612,39.841507 28.613564,40.064819 
	C28.299721,40.873573 28.189922,41.459015 28.080124,42.044460 
	C28.080124,42.044460 28.014639,42.520279 28.008049,42.760338 
z"/>
<path fill="#A32A44" opacity="1.000000" stroke="none" 
	d="
M28.443825,42.033577 
	C28.189922,41.459015 28.299721,40.873573 29.025507,40.126953 
	C30.743025,39.962814 31.844551,39.959850 32.996391,39.982918 
	C33.046700,40.008945 33.138836,40.074867 33.138836,40.074867 
	C33.138836,40.074867 33.044041,40.535465 33.001823,40.766869 
	C32.416294,41.170765 31.872984,41.343258 31.163696,41.756180 
	C30.267654,42.005302 29.537588,42.013996 28.443825,42.033577 
z"/>
<path fill="#822F62" opacity="1.000000" stroke="none" 
	d="
M25.608181,41.980091 
	C25.955338,42.141754 25.969879,42.310604 25.991041,42.733421 
	C25.502100,43.255184 25.006538,43.522980 24.251545,43.902679 
	C23.825270,44.011909 23.658430,44.009224 23.241222,44.002277 
	C22.990852,43.998013 22.987988,43.500328 22.983820,43.251534 
	C23.744959,42.664253 24.510265,42.325768 25.608181,41.980091 
z"/>
<path fill="#FDFAFC" opacity="1.000000" stroke="none" 
	d="
M28.921476,39.799789 
	C28.204258,39.538036 27.487041,39.276283 26.383923,39.013527 
	C25.998022,39.012531 25.786343,38.677391 25.590477,38.711441 
	C24.069004,37.331646 22.743393,35.917797 21.259018,33.917610 
	C20.754576,32.520813 20.408894,31.710354 20.063213,30.899897 
	C20.088964,30.148819 20.114717,29.397741 20.118919,27.984646 
	C20.022779,26.870403 19.948191,26.418175 20.046808,25.785118 
	C20.270882,25.445299 20.321751,25.286306 20.602066,24.859880 
	C20.895716,23.890676 20.959915,23.188906 21.024117,22.487137 
	C21.872656,22.378620 22.721195,22.270102 23.938343,22.382847 
	C25.485266,23.082453 26.663582,23.560795 27.841896,24.039137 
	C27.841896,24.039137 27.879719,24.389702 27.717413,24.859081 
	C25.488070,27.792294 23.699722,30.277670 27.082413,33.451767 
	C27.800362,33.999191 28.386246,34.247375 29.110767,34.688057 
	C29.834612,35.898968 30.419819,36.917377 30.702785,37.979912 
	C29.938263,38.363857 29.475983,38.703678 28.968487,39.229866 
	C28.923273,39.416237 28.921476,39.799789 28.921476,39.799789 
z"/>
<path fill="#504766" opacity="1.000000" stroke="none" 
	d="
M19.912729,31.142639 
	C20.408894,31.710354 20.754576,32.520813 21.038300,33.670227 
	C20.512882,34.007427 20.049419,34.005672 19.237650,33.968170 
	C18.902538,33.524799 18.915737,33.117168 18.903030,32.404156 
	C19.172165,31.860975 19.467205,31.623178 19.912729,31.142639 
z"/>
<path fill="#306760" opacity="1.000000" stroke="none" 
	d="
M19.873604,25.965946 
	C19.948191,26.418175 20.022779,26.870403 19.954914,27.641018 
	C19.376837,27.700415 18.941212,27.441423 18.271158,27.084499 
	C17.743643,26.496635 17.450558,26.006708 17.061974,25.246826 
	C16.966473,24.976873 16.869818,24.994246 17.120224,24.914455 
	C18.204956,25.211758 19.039280,25.588852 19.873604,25.965946 
z"/>
<path fill="#306760" opacity="1.000000" stroke="none" 
	d="
M14.168419,24.858778 
	C14.253005,24.555077 14.473442,24.554518 14.705914,24.937099 
	C14.717498,25.119638 14.634593,25.171022 14.592318,25.183182 
	C14.550041,25.195343 14.303822,24.961317 14.168419,24.858778 
z"/>
<path fill="#51AC92" opacity="1.000000" stroke="none" 
	d="
M15.887297,19.707943 
	C15.809699,19.929878 15.636914,19.939819 15.228069,19.839872 
	C14.992007,19.729986 15.010484,19.374456 15.011541,19.196766 
	C15.332466,19.079948 15.592303,19.238907 15.887297,19.707943 
z"/>
<path fill="#358069" opacity="1.000000" stroke="none" 
	d="
M20.046808,25.785118 
	C19.039280,25.588852 18.204956,25.211758 17.101822,24.868931 
	C16.910341,24.475304 16.987669,24.047407 17.011806,23.296907 
	C16.942709,22.255907 16.926802,21.537510 16.884125,20.456581 
	C17.607571,20.070866 18.357790,20.047680 19.481522,20.017403 
	C20.013050,20.696655 20.171062,21.382999 20.202297,22.803585 
	C20.174553,24.067657 20.273584,24.597486 20.372618,25.127316 
	C20.321751,25.286306 20.270882,25.445299 20.046808,25.785118 
z"/>
<path fill="#CE2E25" opacity="1.000000" stroke="none" 
	d="
M35.329334,40.990143 
	C34.589508,40.703110 34.146179,40.389465 33.420845,40.075344 
	C33.138836,40.074867 33.046700,40.008945 33.025795,39.826984 
	C33.004887,39.645023 32.981522,39.328144 33.244141,39.079765 
	C34.601112,38.332653 35.695457,37.833920 36.789803,37.335186 
	C36.852444,37.923462 36.915085,38.511734 37.002766,39.542809 
	C36.560482,40.311584 36.093155,40.637558 35.329334,40.990143 
z"/>
<path fill="#FFF7E9" opacity="1.000000" stroke="none" 
	d="
M33.890675,26.243196 
	C34.475555,25.240250 35.060432,24.237305 35.941360,23.041721 
	C36.952644,23.310076 37.667877,23.771065 38.628716,24.425709 
	C38.874325,24.619366 38.823345,24.603886 38.823345,24.603886 
	C39.010406,26.774153 39.197468,28.944420 39.450935,31.573360 
	C39.442081,32.220604 39.366814,32.409172 39.087734,32.924400 
	C38.883926,33.251053 38.882179,33.556030 38.882179,33.556030 
	C38.755577,33.823975 38.628971,34.091919 37.902748,34.429291 
	C36.242317,34.009033 35.181499,33.519348 34.167549,32.595200 
	C34.106503,30.188223 33.998589,28.215710 33.890675,26.243196 
z"/>
<path fill="#FFF5F0" opacity="1.000000" stroke="none" 
	d="
M34.120678,33.029663 
	C35.181499,33.519348 36.242317,34.009033 37.546135,34.694675 
	C37.505817,35.531067 37.222511,36.171497 36.864506,37.073559 
	C35.695457,37.833920 34.601112,38.332653 32.920643,38.990982 
	C31.888792,39.119617 31.443062,39.088661 31.009392,38.777294 
	C31.015980,38.309853 31.010504,38.122818 31.005026,37.935787 
	C30.419819,36.917377 29.834612,35.898968 29.397873,34.794369 
	C29.863462,34.497185 30.180584,34.286186 30.866920,34.155205 
	C31.830957,33.823231 32.425781,33.411247 33.295151,33.023930 
	C33.753357,33.042286 33.937019,33.035976 34.120678,33.029663 
z"/>
<path fill="#FDECB4" opacity="1.000000" stroke="none" 
	d="
M38.929192,33.811844 
	C38.882179,33.556030 38.883926,33.251053 38.924370,33.181435 
	C39.089848,33.435890 39.214878,33.759964 39.320076,34.279324 
	C39.192230,34.338959 39.084213,34.203308 38.929192,33.811844 
z"/>
<path fill="#FDECB4" opacity="1.000000" stroke="none" 
	d="
M39.211609,24.677639 
	C38.823345,24.603886 38.874325,24.619366 38.871170,24.645596 
	C39.079292,24.259745 39.290562,23.847664 39.775837,23.219673 
	C40.358482,23.297897 40.667126,23.592037 41.036568,24.091120 
	C40.598202,24.447840 40.099037,24.599617 39.211609,24.677639 
z"/>
<path fill="#96BC51" opacity="1.000000" stroke="none" 
	d="
M33.870003,19.148756 
	C34.047150,19.125200 34.224297,19.101645 34.667202,19.050789 
	C34.739727,19.298599 34.546490,19.573715 34.121891,19.964424 
	C33.890526,20.080019 33.910118,20.040300 33.908249,19.806396 
	C33.906384,19.572491 33.870003,19.148756 33.870003,19.148756 
z"/>
<path fill="#7BAA45" opacity="1.000000" stroke="none" 
	d="
M33.542141,19.114500 
	C33.870003,19.148756 33.906384,19.572491 33.912277,19.784893 
	C33.356480,19.857046 32.794788,19.716801 32.061523,19.333685 
	C32.331394,19.087290 32.772835,19.083767 33.542141,19.114500 
z"/>
<path fill="#FBFDF1" opacity="1.000000" stroke="none" 
	d="
M27.898003,23.680527 
	C26.663582,23.560795 25.485266,23.082453 24.152271,22.304859 
	C24.273880,21.443426 24.550167,20.881247 24.821518,20.102318 
	C24.981310,19.823709 25.146044,19.761847 25.529819,19.856480 
	C25.871431,20.188801 26.028202,20.325424 26.364315,20.489964 
	C26.847528,20.692884 27.185604,20.828682 27.779182,21.060944 
	C28.007824,21.878908 27.980967,22.600412 27.898003,23.680527 
z"/>
<path fill="#A5B0C0" opacity="1.000000" stroke="none" 
	d="
M20.602066,24.859880 
	C20.273584,24.597486 20.174553,24.067657 20.238209,23.157673 
	C20.400898,22.777519 20.712481,22.632940 20.868298,22.560040 
	C20.959915,23.188906 20.895716,23.890676 20.602066,24.859880 
z"/>
<path fill="#5F4537" opacity="1.000000" stroke="none" 
	d="
M26.950348,33.152531 
	C23.699722,30.277670 25.488070,27.792294 27.749014,25.032524 
	C28.731907,24.847223 29.520895,24.957857 30.627405,25.484631 
	C30.934597,26.204947 30.940077,26.508835 30.715130,27.013645 
	C30.265327,27.802380 30.061768,28.389908 29.634087,29.157604 
	C29.288584,29.887939 29.167204,30.438108 29.018738,30.987841 
	C28.991650,30.987404 28.941658,31.005245 28.694294,31.192984 
	C28.299969,31.976824 28.153009,32.572926 27.741951,33.176018 
	C27.302017,33.172852 27.126183,33.162689 26.950348,33.152531 
z"/>
<path fill="#A3452F" opacity="1.000000" stroke="none" 
	d="
M29.045826,30.988277 
	C29.167204,30.438108 29.288584,29.887939 29.924480,29.000174 
	C30.613121,28.045864 30.787247,27.429152 30.961370,26.812439 
	C30.940077,26.508835 30.934597,26.204947 30.977991,25.675915 
	C31.770235,25.647526 32.529415,25.843992 33.589638,26.141827 
	C33.998589,28.215710 34.106503,30.188223 34.167549,32.595200 
	C33.937019,33.035976 33.753357,33.042286 33.013649,32.838196 
	C31.320343,32.081287 30.183084,31.534782 29.045826,30.988277 
z"/>
<path fill="#A02F54" opacity="1.000000" stroke="none" 
	d="
M30.997332,39.057709 
	C31.443062,39.088661 31.888792,39.119617 32.658020,39.239361 
	C32.981522,39.328144 33.004887,39.645023 32.975483,39.800957 
	C31.844551,39.959850 30.743025,39.962814 29.229553,39.903641 
	C28.817612,39.841507 28.851902,39.775532 28.886688,39.787659 
	C28.921476,39.799789 28.923273,39.416237 29.288189,39.371655 
	C30.101181,39.237282 30.549257,39.147495 30.997332,39.057709 
z"/>
<path fill="#D08398" opacity="1.000000" stroke="none" 
	d="
M27.082413,33.451767 
	C27.126183,33.162689 27.302017,33.172852 28.103809,33.276794 
	C29.230381,33.338612 29.730995,33.306648 30.306849,33.407280 
	C30.575428,33.685204 30.613968,33.863644 30.497705,34.075191 
	C30.180584,34.286186 29.863462,34.497185 29.259235,34.601868 
	C28.386246,34.247375 27.800362,33.999191 27.082413,33.451767 
z"/>
<path fill="#FCD3DD" opacity="1.000000" stroke="none" 
	d="
M31.009392,38.777298 
	C30.549257,39.147495 30.101181,39.237282 29.333403,39.185284 
	C29.475983,38.703678 29.938263,38.363857 30.702785,37.979912 
	C31.010504,38.122818 31.015980,38.309853 31.009392,38.777298 
z"/>
<path fill="#8E3425" opacity="1.000000" stroke="none" 
	d="
M30.866920,34.155205 
	C30.613968,33.863644 30.575428,33.685204 30.151680,33.114708 
	C29.594736,32.128113 29.268198,31.566679 28.941658,31.005245 
	C28.941658,31.005245 28.991650,30.987404 29.018738,30.987841 
	C30.183084,31.534782 31.320343,32.081287 32.739105,32.813530 
	C32.425781,33.411247 31.830957,33.823231 30.866920,34.155205 
z"/>
<path fill="#6B2C23" opacity="1.000000" stroke="none" 
	d="
M28.694294,31.192984 
	C29.268198,31.566679 29.594736,32.128113 30.076443,32.982117 
	C29.730995,33.306648 29.230381,33.338612 28.367908,33.269802 
	C28.153009,32.572926 28.299969,31.976824 28.694294,31.192984 
z"/>
<path fill="#A15E3E" opacity="1.000000" stroke="none" 
	d="
M30.715130,27.013645 
	C30.787247,27.429152 30.613121,28.045864 30.148602,28.820007 
	C30.061768,28.389908 30.265327,27.802380 30.715130,27.013645 
z"/>
</svg>